<?xml version="1.0" encoding="UTF-8"?>
<svg width="72px" height="73px" viewBox="0 0 72 73" version="1.1" xmlns="http://www.w3.org/2000/svg" xmlns:xlink="http://www.w3.org/1999/xlink">
    <!-- Generator: Sketch 56.2 (81672) - https://sketch.com -->
    <title>before@2x</title>
    <desc>Created with Sketch.</desc>
    <g id="页面-1" stroke="none" stroke-width="1" fill="none" fill-rule="evenodd">
        <g id="未收藏" transform="translate(-339.000000, -1002.000000)" fill-rule="nonzero">
            <g id="编组-27" transform="translate(339.000000, 1002.000000)">
                <rect id="star备份" fill="#000000" opacity="0" x="1.00186526e-12" y="-8.17124146e-13" width="71.8181818" height="71.8181818"></rect>
                <path d="M59.6170436,30.6780373 C59.3863776,29.9988172 58.8097125,29.4840957 58.0902542,29.3142907 L44.8214651,26.2206554 L37.670818,14.9816853 C37.2808825,14.3714485 36.5943765,14 35.858442,14 C35.1170154,14 34.4305094,14.3714485 34.046066,14.9816853 L26.9009109,26.2206554 L13.6321219,29.3142907 C12.9126635,29.4840957 12.3359984,29.9988172 12.1053324,30.6780373 C11.8746663,31.3572574 12.0284437,32.1054608 12.511744,32.6467143 L21.3649261,42.6864365 L20.3104528,55.8357131 C20.2555323,56.5467717 20.5850552,57.2366046 21.1836885,57.6558107 C21.5516557,57.9158247 21.9910196,58.0484848 22.4358755,58.0484848 C22.710478,58.0484848 22.9850804,57.9954208 23.2486987,57.894599 L35.863934,52.8588188 L48.4846614,57.894599 C48.7482797,58.0007272 49.0228822,58.0484848 49.2974846,58.0484848 C49.7423405,58.0484848 50.1762123,57.9158247 50.5496716,57.6558107 C51.1483049,57.2366046 51.4778278,56.5467717 51.4229073,55.8357131 L50.368434,42.6864365 L59.2216161,32.6467143 C59.6884403,32.1054608 59.8422176,31.3572574 59.6170436,30.6780373 Z M48.1661226,42.00191 L49.2919925,56.0002117 L35.858442,50.6407406 L22.4303835,56.0002117 L23.5562534,42.00191 L14.1264062,31.3148062 L28.2519549,28.0248338 L35.858442,16.0641923 L43.4649291,28.0248338 L57.5904778,31.3148062 L48.1661226,42.00191 L48.1661226,42.00191 Z" id="Shape" stroke="#A3A295" stroke-width="0.5" fill="#A3A295"></path>
            </g>
        </g>
    </g>
</svg>