<?xml version="1.0" encoding="UTF-8"?>
<svg width="80px" height="80px" viewBox="0 0 80 80" version="1.1" xmlns="http://www.w3.org/2000/svg" xmlns:xlink="http://www.w3.org/1999/xlink">
    <!-- Generator: Sketch 54.1 (76490) - https://sketchapp.com -->
    <title>播放声音icon@2x</title>
    <desc>Created with Sketch.</desc>
    <defs>
        <filter x="-39.2%" y="-39.2%" width="178.3%" height="178.3%" filterUnits="objectBoundingBox" id="filter-1">
            <feOffset dx="0" dy="2" in="SourceAlpha" result="shadowOffsetOuter1"></feOffset>
            <feGaussianBlur stdDeviation="2.5" in="shadowOffsetOuter1" result="shadowBlurOuter1"></feGaussianBlur>
            <feColorMatrix values="0 0 0 0 1   0 0 0 0 0.6581336   0 0 0 0 0.248570884  0 0 0 1 0" type="matrix" in="shadowBlurOuter1" result="shadowMatrixOuter1"></feColorMatrix>
            <feMerge>
                <feMergeNode in="shadowMatrixOuter1"></feMergeNode>
                <feMergeNode in="SourceGraphic"></feMergeNode>
            </feMerge>
        </filter>
    </defs>
    <g id="Page-1" stroke="none" stroke-width="1" fill="none" fill-rule="evenodd">
        <g id="词语学习拼音老用户" transform="translate(-335.000000, -559.000000)" fill-rule="nonzero">
            <g id="喇叭" filter="url(#filter-1)" transform="translate(345.000000, 569.000000)">
                <rect id="播放声音icon" fill="#000000" opacity="0" x="0" y="0" width="60" height="60"></rect>
                <path d="M47.9457598,44.4279166 L47.9682535,44.4279166 L47.9682535,44.2891416 L47.9457598,44.4279166 Z M40.8434297,11.3079189 C40.5777461,11.1383818 40.3136113,11 39.9915742,11 C39.2048291,11 38.5704648,11.677374 38.5704648,12.5121924 C38.5704648,13.1150439 38.906501,13.597623 39.3812168,13.8715869 C44.6043418,17.108876 48.1164883,23.117793 48.1164883,30.0041807 C48.1164883,36.885207 44.607499,42.8919795 39.3914629,46.1295068 C38.9337842,46.3954287 38.539667,46.8943301 38.539667,47.5115977 C38.539667,48.3473096 39.1773076,49.0246836 39.9623252,49.0246836 C40.27775,49.0246836 40.5278262,48.8954756 40.8021475,48.7278447 C46.8633672,44.9697324 50.9396445,37.9958359 50.9396445,30.0041807 C50.9398232,22.0306943 46.8806426,15.0706777 40.8434297,11.3079189 Z M42.4922764,30.0051338 C42.4922764,25.3190947 40.1012432,21.2304863 36.5442998,19.0300781 C36.3831621,18.9407227 36.0045332,18.7650498 35.7386113,18.7650498 C34.9484707,18.7650498 34.309043,19.4442705 34.309043,20.2826631 C34.309043,20.8461387 34.5902148,21.3478398 35.0188232,21.6109619 C37.7683506,23.2697568 39.6228936,26.4061338 39.6228936,30.0050742 C39.6228936,33.6657295 37.7030615,36.8504775 34.8747822,38.4873506 C34.4633301,38.7532725 34.1909746,39.2375791 34.1909746,39.7875918 C34.1909746,40.6268779 34.8301641,41.3077666 35.6187559,41.3077666 C35.954792,41.3096729 36.3540322,41.1003428 36.3540322,41.1003428 C40.0155215,38.929958 42.4922764,34.7765371 42.4922764,30.0051338 L42.4922764,30.0051338 Z M16.565668,37.7194297 L9,37.7194297 L9,22.4590049 L16.6264893,22.4590049 L16.6264893,22.4776504 L28.0602959,11.0270449 L28.0602959,49.1364971 L16.565668,37.7194297 Z" id="Shape" fill="#FFA83F"></path>
            </g>
        </g>
    </g>
</svg>