<?xml version="1.0" encoding="UTF-8"?>
<svg width="191px" height="190px" viewBox="0 0 191 190" version="1.1" xmlns="http://www.w3.org/2000/svg" xmlns:xlink="http://www.w3.org/1999/xlink">
    <!-- Generator: Sketch 54.1 (76490) - https://sketchapp.com -->
    <title>练习页-添加图片@2x</title>
    <desc>Created with Sketch.</desc>
    <defs>
        <rect id="path-1" x="0" y="0" width="190" height="190"></rect>
        <mask id="mask-2" maskContentUnits="userSpaceOnUse" maskUnits="objectBoundingBox" x="0" y="0" width="190" height="190" fill="white">
            <use xlink:href="#path-1"></use>
        </mask>
    </defs>
    <g id="Page-1" stroke="none" stroke-width="1" fill="none" fill-rule="evenodd">
        <g id="报错" transform="translate(-49.000000, -620.000000)">
            <g id="编组-14" transform="translate(50.000000, 620.000000)">
                <g id="编组-3" stroke="#FFCA00" stroke-dasharray="12" stroke-width="2">
                    <g id="编组">
                        <use id="社区页_添加图片" mask="url(#mask-2)" xlink:href="#path-1"></use>
                    </g>
                </g>
                <g id="编组-69" transform="translate(63.000000, 49.000000)">
                    <rect id="矩形复制-43" stroke="#979797" fill="#D8D8D8" opacity="0" x="0.5" y="0.5" width="63" height="63"></rect>
                    <g id="编组" transform="translate(1.000000, 5.000000)">
                        <polygon id="Stroke-1" stroke="#000000" stroke-width="2" stroke-linecap="round" stroke-linejoin="round" points="40 25 52 25 52 20 40 20"></polygon>
                        <g>
                            <path d="M39.8281154,25.3835217 L51.5109808,25.3835217 L51.5109808,19.9365326 L39.8281154,19.9365326 L39.8281154,25.3835217 Z M51.5109808,44.9929312 C51.5109808,46.4307971 50.1407308,47.5542464 48.6856731,47.0521739 C47.8036731,46.7576413 47.2621154,45.8317899 47.2621154,44.8835688 L47.2621154,33.1072355 C47.2621154,32.0832065 47.9102885,31.1138587 48.888,30.885192 C49.6621731,30.7112065 50.3951538,30.961 50.8846154,31.4730145 C51.2771538,31.8657246 51.5109808,32.4100507 51.5109808,33.0103007 L51.5109808,44.9929312 Z M29.6427115,51.2253406 L54.6973269,51.2253406 C55.2812885,51.2253406 55.7586346,50.7344529 55.7586346,50.1354457 L55.7586346,15.5781957 C55.7586346,14.9791884 55.2812885,14.4883007 54.6973269,14.4883007 L15.3998654,14.4883007 C14.8159038,14.4883007 14.3385577,13.9986558 14.3385577,13.3984058 C14.3385577,12.8006413 13.86,12.3097536 13.2760385,12.3097536 L5.31017308,12.3097536 C4.72621154,12.3097536 4.24886538,12.8006413 4.24886538,13.3984058 C4.24886538,13.9986558 3.77030769,14.4883007 3.18634615,14.4883007 L1.06251923,14.4883007 C0.478557692,14.4883007 0,14.9791884 0,15.5781957 L0,50.1354457 C0,50.7344529 0.478557692,51.2253406 1.06251923,51.2253406 L9.65353846,51.2253406 L29.6427115,51.2253406 Z" id="Stroke-2" stroke="#000000" stroke-width="2" stroke-linecap="round" stroke-linejoin="round"></path>
                            <polygon id="Stroke-4" stroke="#000000" stroke-width="2" stroke-linecap="round" stroke-linejoin="round" points="39.8281154 25.3835217 51.5109808 25.3835217 51.5109808 19.9365326 39.8281154 19.9365326"></polygon>
                            <path d="M35.5797346,14.4885493 L20.1798692,14.4885493 C20.1798692,14.4226833 20.1895615,14.3680022 20.2004654,14.303379 L21.0921577,8.85638986 C21.1781769,8.33319058 21.6240231,7.95166522 22.1449846,7.95166522 L33.6146192,7.95166522 C34.1355808,7.95166522 34.5814269,8.33319058 34.6662346,8.85638986 L35.5579269,14.303379 C35.5688308,14.3680022 35.5797346,14.4226833 35.5797346,14.4885493 Z" id="Stroke-5" stroke="#000000" stroke-width="2" stroke-linecap="round" stroke-linejoin="round"></path>
                            <g transform="translate(3.634615, 21.202899)">
                                <path d="M21.2393596,1.85393986 C19.3820712,1.19155217 17.3660712,0.872164493 15.266475,0.970342029 C7.11887885,1.35311014 0.436032692,8.27151957 0.134359615,16.6327659 C-0.157621154,24.6621971 5.20949423,31.4625449 12.4835712,33.1477188 C13.6212058,33.4186391 14.7976096,33.5540993 16.0139942,33.5540993 C17.2303788,33.5540993 18.4067827,33.4186391 19.5444173,33.1477188 C26.6307058,31.5060413 31.9057442,25.0114109 31.9057442,17.2541428 C31.9057442,13.6228167 30.748725,10.2686246 28.7920904,7.55942174" id="Fill-6" fill="#FFFFFF"></path>
                                <path d="M21.2393596,1.85393986 C19.3820712,1.19155217 17.3660712,0.872164493 15.266475,0.970342029 C7.11887885,1.35311014 0.436032692,8.27151957 0.134359615,16.6327659 C-0.157621154,24.6621971 5.20949423,31.4625449 12.4835712,33.1477188 C13.6212058,33.4186391 14.7976096,33.5540993 16.0139942,33.5540993 C17.2303788,33.5540993 18.4067827,33.4186391 19.5444173,33.1477188 C26.6307058,31.5060413 31.9057442,25.0114109 31.9057442,17.2541428 C31.9057442,13.6228167 30.748725,10.2686246 28.7920904,7.55942174" id="Stroke-7" stroke="#000000" stroke-width="2" stroke-linecap="round" stroke-linejoin="round"></path>
                            </g>
                            <path d="M28.6926231,36.8618428 C29.7248538,43.2993065 24.3686423,48.7935203 18.0940846,47.7334514 C14.2934885,47.0921906 11.2282962,43.9492667 10.6043538,40.0507486 C9.57212308,33.6145275 14.9283346,28.1203138 21.2028923,29.1791399 C25.0034885,29.8204007 28.0674692,32.9633246 28.6926231,36.8618428 Z" id="Stroke-8" stroke="#FFCA00" stroke-width="2" fill="#FFCA00" stroke-linecap="round" stroke-linejoin="round"></path>
                            <path d="M8.27395962,9.25419529 L8.27395962,1.89957935 C8.27395962,0.863122826 9.09295962,0.0230213768 10.1033827,0.0230213768 L60.434325,0.0230213768 C61.4447481,0.0230213768 62.2637481,0.863122826 62.2637481,1.89957935 L62.2637481,35.6105141 C62.2637481,36.6469707 61.4447481,37.4870721 60.434325,37.4870721 L58.6909212,37.4870721" id="Stroke-9" stroke="#000000" stroke-width="2" stroke-linecap="round" stroke-linejoin="round"></path>
                        </g>
                    </g>
                </g>
            </g>
        </g>
    </g>
</svg>