<?xml version="1.0" encoding="UTF-8"?>
<svg width="220px" height="112px" viewBox="0 0 220 112" version="1.1" xmlns="http://www.w3.org/2000/svg" xmlns:xlink="http://www.w3.org/1999/xlink">
    <!-- Generator: Sketch 56.2 (81672) - https://sketch.com -->
    <title>等级A@2x</title>
    <desc>Created with Sketch.</desc>
    <defs>
        <path d="M0.488945034,101.099996 C1.39485932,100.966008 2.56429525,100.714781 3.08899405,100.391461 C3.74826707,100.877168 4.89332021,99.5744247 5.53852624,100.404569 C5.92818192,100.303714 5.42223911,99.8908261 5.87050725,99.8110886 C6.23109115,99.8282012 6.55932096,99.9392512 6.93584744,99.9294205 C7.05541688,99.5780657 7.68280472,99.5183535 7.96180006,99.7779556 C7.83801053,99.8205551 7.95289096,99.9472613 7.86145551,100.000784 C7.3658285,99.8595136 6.45288072,100.245458 6.18138778,100.564044 C6.85988569,100.340487 7.83332153,100.24655 8.33035525,99.8456779 C8.21359921,99.8693443 8.07292929,99.9465331 8.00493883,99.8580572 C8.29049877,99.7881504 8.19249872,99.5813425 8.47899646,99.5110716 C8.63467117,99.6669056 8.35426913,99.853324 8.70453723,99.7207922 C8.78565689,99.5995475 8.7687765,99.442257 8.94695839,99.3559657 C9.68781997,99.3916473 10.7006434,99.2121469 11.1882991,98.7996235 C12.3985293,99.1884805 13.7414581,97.7237131 14.4724728,98.7522908 C15.1340904,98.3226548 15.8951146,98.0448478 16.8197849,98.1875743 C16.9928089,98.1209443 16.7428853,97.8988444 16.973584,97.8540603 C17.9850007,98.1027394 18.7727523,97.0239162 19.8024561,96.9478197 C19.9112408,97.2889797 18.8172977,97.1724683 19.311987,97.48268 C20.4908009,96.7366427 21.9232896,97.0370237 22.9694049,96.6907663 C23.0312996,96.8891998 22.5933473,96.8975741 22.7574622,97.1338739 C23.0416154,97.0220957 23.7585631,96.9725783 24.0853862,96.7220787 C24.1726016,96.8222057 24.3006112,96.8349492 24.3475012,97.0162701 C24.9533196,96.6084801 25.7396645,96.7759653 26.5996266,96.6947713 C26.6357319,96.4697586 26.1996551,96.4653894 26.4336361,96.3692675 L27.0024115,96.193408 C26.9348899,96.3408678 27.032421,96.5356604 27.2635886,96.4894199 C28.0049191,96.1012911 29.1105847,96.0077179 29.6995227,95.4510116 C29.567293,95.841325 29.9832071,95.4502834 30.0249391,95.4448219 C30.0408817,95.4430014 30.0891784,95.6083021 30.1060588,95.6075739 C31.736892,95.5467695 34.3003669,93.8857531 35.2020611,94.1602832 C34.9469796,94.0193772 35.3689894,93.5103678 35.8458604,93.685499 C36.0245112,93.8872095 35.7370757,93.9061426 35.8153819,94.0692586 C38.0492202,93.2216378 40.6947525,92.6645674 43.3904571,91.825685 C43.3069929,91.8285978 43.1996149,91.8788433 43.1583517,91.799834 C44.4834624,91.5354987 45.1314818,91.6086824 46.1222669,91.1178779 C47.1444683,90.9722386 48.9159715,90.3641945 49.4462971,90.2538727 C49.3370435,90.2302063 48.8123447,90.240037 49.0392921,90.0907567 C50.3268908,90.3263283 51.2154558,90.0568955 52.6573225,89.6126956 C52.9499159,89.9720606 53.9993135,89.6840589 53.8183182,89.2795457 C53.4830549,89.3225093 53.3433228,89.443754 53.3151888,89.6097828 C53.1393514,89.5304094 52.8022125,89.7521453 52.7736096,89.3927803 C53.2706433,89.2569716 54.7725292,88.7257522 54.1474858,89.2780893 C55.5077639,88.550985 56.2561279,89.0337794 57.4879275,88.4264634 C58.0965594,89.15466 59.6176701,87.9873609 59.6987897,88.4555913 C59.964187,88.150841 60.534838,88.0365142 61.039843,88.2633474 C60.2966369,88.7119165 59.6443974,88.7188343 59.2092584,89.0574457 C59.5201389,88.9409343 59.8024166,88.8775812 59.9660626,89.0305025 C60.2741297,88.6383686 60.7252113,88.5579029 61.2302163,88.6747784 C61.0459387,88.3132289 61.6006471,88.5153034 61.7150586,88.5386057 C61.7122452,88.2378605 61.3713551,88.5637285 61.3690106,88.2637115 C61.9410683,87.9476742 62.7710208,87.854465 63.5240738,87.9356589 C63.3482364,87.9979197 63.2244468,88.0820264 63.2108487,88.2105531 C63.6970978,87.9363871 64.5153278,88.2094608 64.4037297,87.6920772 C64.1786578,87.6993591 63.808227,87.9717047 63.682093,87.8002144 C64.3240167,87.4626953 64.8815385,87.4211881 65.4188976,87.5031102 C65.28573,87.528597 64.7057011,87.6869798 65.0658161,87.6946259 C65.5562852,87.6483854 65.6064575,87.4241008 65.8695102,87.2857435 C67.1270993,87.6119756 67.7441713,87.2030932 68.8685929,87.102238 C68.8671862,86.7669034 69.4912917,86.6864377 69.9278374,86.5295114 C69.9761341,86.6452946 70.0563159,86.6977248 70.1383734,86.7497908 C70.2654452,86.958055 69.7881053,86.9198247 69.99489,87.1612219 C70.401895,87.0738383 71.2271585,86.6929915 71.9633311,86.8925173 C72.1326039,86.6551253 73.2326427,86.139198 73.6072936,86.6259974 C72.9550541,86.8881482 72.39425,87.1473861 71.9408239,87.0851253 C71.9600488,87.3920602 69.8575024,87.4863616 70.2354356,87.9294693 C70.0961724,87.8326191 69.9705073,87.7091898 69.7327751,87.7907478 C69.6502487,87.9600535 69.401263,88.1610358 69.2741912,88.4741603 C69.0542772,87.8719417 68.8156072,88.9136269 68.4784683,88.417361 C68.1314825,88.4315608 68.3734348,88.6864296 68.1999419,88.773085 C67.9012527,88.765803 67.6916546,88.5932204 67.3667071,88.6329071 C65.4282756,89.8759387 62.5872121,89.8377084 60.4949815,90.6485552 C61.021087,90.5902995 61.6236231,90.3867686 62.0057764,90.5946687 C61.8454127,90.6645756 61.4144939,90.4989108 61.423403,90.7577847 C61.6283121,90.7858203 61.9204367,90.6503757 62.0812693,90.758877 C61.6217475,91.0465147 61.0717282,90.7075392 60.9385606,90.8950498 C61.5162451,90.7789024 61.0557856,91.2118153 61.0904841,91.2238305 C61.3441589,91.3101218 61.5368767,91.0046434 61.9804558,91.251502 C61.9307525,91.0905706 61.7882069,91.1014935 61.7314701,90.9503927 C61.9410683,90.9183521 62.0240635,91.1196984 62.2341306,91.088386 C63.1958439,89.8682926 65.6622565,90.0565314 67.067549,89.1797828 C67.3441999,89.580655 67.5870899,89.2635254 67.4576736,89.0712815 C67.9556451,89.0752866 68.1028796,89.2307565 68.3664013,89.3767599 C68.5202004,88.710096 69.9831676,88.9889953 70.3634452,88.4512221 C71.1887088,88.784372 72.2939054,87.8344396 73.0010062,87.7197486 C72.9166043,87.7230255 72.8561162,87.6826106 72.8284511,87.5813913 C73.1594943,87.4510441 73.3287671,87.3013997 73.6504324,87.4488595 C73.5102313,87.713559 73.4122313,87.376404 73.1224513,87.5012897 C74.0930737,87.8959722 75.0139928,87.1273607 76.1173138,87.0490796 C76.2153139,86.8870559 76.420692,86.7701803 76.5932471,86.6391049 C76.8797448,86.82079 77.3941278,86.5961413 77.8461472,86.4807222 C77.8133242,86.2218483 77.9061663,86.0135841 78.3835062,85.9618821 C77.6234198,85.5296975 76.7658022,85.9334825 76.1735818,86.1992742 C76.3756776,85.7914841 75.8054955,85.8828728 76.1084048,85.5682919 C76.5955916,85.9498669 78.0158889,85.1929066 78.4777551,85.1939989 C78.2742526,85.2111115 78.0412094,85.2806542 77.9736879,85.0556415 C78.267688,84.9704425 78.7140806,84.6023391 79.0530951,84.7581732 C78.534492,84.8342697 78.8017648,85.1546762 78.3656881,84.9471402 C78.6676595,85.1521275 78.9991716,85.3017719 79.4113345,85.3090539 C79.3696024,85.0337956 79.0287123,85.3006796 79.0287123,84.9504171 C79.1285879,84.9234738 79.1159276,84.8506542 79.1886071,84.8135161 C79.4244637,85.0053959 80.3013062,84.6096211 80.1592295,85.0104933 C80.8152203,84.6791639 81.9147901,84.4559716 82.415575,84.8564797 C83.5282741,84.3361833 84.3647912,83.8406455 85.6561411,83.6917293 C85.7283516,83.8104254 85.7574234,84.005218 85.9037201,83.994295 C85.8995,83.7904 86.1550504,83.6939139 86.2474236,83.5297056 C86.4059118,83.8093331 86.5104764,83.449604 86.6178544,83.6138123 C86.4884381,83.6727962 86.5864382,83.8260816 86.5320458,83.9149216 C86.7486775,83.8264457 86.9170125,83.8253534 87.0609647,83.8632196 C87.0211082,83.5879613 86.6764669,83.8548454 86.6788114,83.5049469 C86.9292039,83.449604 86.9254527,83.2908571 87.0975389,83.2049299 C87.6156731,83.4062763 87.9743814,82.7042948 88.8113674,82.8291805 C88.8296545,82.9489688 88.7405635,83.0243372 88.860133,83.1859968 C89.2104011,83.0596547 89.0434727,82.7221356 89.3646691,82.5841424 C89.3946786,82.7093922 89.2652623,82.7683761 89.2783915,82.8856157 C89.5020567,82.1523218 90.9678372,82.4993075 91.2876269,82.4301288 C91.1718086,82.4395953 90.9903444,82.3591296 91.1150718,82.2924996 C92.778728,82.0168772 94.0639822,81.4649042 95.5522699,81.0804164 C95.6029111,81.1703487 95.4659924,81.2482657 95.6249494,81.245353 C96.2645286,80.9919406 99.2565778,79.1445059 99.0647978,80.3096204 C99.1491998,80.3085281 99.2593912,80.2604671 99.2973721,80.3391123 C99.1885873,80.3838964 99.0132188,80.4006449 99.040415,80.5015002 C99.4014678,80.549197 99.8530183,80.145412 100.243143,79.9903062 C100.389908,80.0736847 100.516042,80.1949294 100.684846,80.2397135 C101.15656,79.4630919 102.049345,80.2320674 102.685642,79.789688 C102.811776,79.9983163 102.333967,79.9575373 102.538876,80.1985704 C103.249259,79.2468175 105.201757,79.3706109 106.505768,78.7571053 C106.634246,78.9682823 105.923863,78.8273763 106.224428,79.1110088 C107.141596,78.6074609 109.177089,78.38172 110.358717,77.8122702 C110.170219,78.144692 110.769942,77.829747 110.895607,78.0376471 C110.278066,78.822643 109.139577,78.5663178 108.17974,79.3232781 C108.286649,79.4292307 108.255233,79.7816779 108.46108,79.7103146 C108.438572,78.8572323 109.856525,78.9926769 110.552372,78.5011442 C110.651779,78.6194761 110.890918,78.4887649 110.893731,78.778223 C111.446095,78.0937182 112.994871,77.8155471 114.272154,77.7849629 C114.403915,77.3454962 115.250748,77.5876216 115.661973,77.2315335 C115.503954,77.4110339 115.714021,77.748553 115.391418,77.8585107 C115.183226,77.670636 115.536776,77.4212287 115.149934,77.5523041 C115.286853,78.1945734 113.844517,78.1195692 113.673838,78.4050222 C113.933139,78.3591459 113.602565,78.5830663 113.818728,78.7359876 C114.13758,78.3973762 114.621484,78.5433796 114.878441,78.1785531 C115.205733,78.3729816 116.124308,78.4064786 115.463159,78.0234472 C116.005207,78.4159452 116.621342,77.826106 117.14182,78.1315844 C116.052566,78.3467665 115.827963,78.8270122 115.045838,79.0563941 C115.629619,79.2220588 115.822336,78.9941333 116.286078,78.9125753 C116.340471,79.0254457 116.31937,79.1066396 116.297332,79.1867413 C117.726538,78.8586887 118.630108,78.5248106 119.919113,78.7800435 C119.891917,78.6784601 119.800013,78.5495693 119.908798,78.5062416 C120.681544,78.6806446 121.77455,78.2382652 122.406626,78.0369189 C122.283306,78.0584007 122.165612,78.0718723 122.141698,77.9229561 C122.564177,77.807537 123.038703,77.6032778 123.217823,77.918951 C123.428359,77.829747 123.154522,77.5319146 123.463526,77.4864023 C123.842397,77.5934472 124.115766,77.8876386 124.522771,77.9477148 C124.079661,77.7034049 125.62703,77.1135656 125.430092,77.8035319 C126.058418,77.7004921 126.284427,77.3684344 126.893059,77.6993998 C127.007471,77.5013303 127.080619,77.28542 127.298188,77.1328628 C126.897279,76.3536925 127.062801,76.2076891 126.762705,75.6134807 C126.320064,75.9251488 125.983394,76.1224901 125.58858,75.6426086 C125.574513,75.89238 124.789575,76.0828034 124.519958,75.9204156 C124.08013,76.6158433 122.86943,76.1436078 121.862234,76.5200854 C121.745947,76.1050134 121.496492,76.5066138 121.198272,76.2317196 C121.535411,76.1082903 121.803621,75.955369 122.099028,75.8133707 C122.069019,76.1068339 122.252358,76.1308644 122.506502,76.2597552 C122.536512,75.9804918 123.058866,75.9138618 123.283469,76.0580447 C123.250646,75.6808389 122.811287,76.0165375 122.65655,75.8523292 C122.981029,75.6342343 123.411947,75.4612876 123.680627,75.2173418 C124.064187,75.6316856 124.771288,75.4175958 125.147345,75.1128456 C125.422121,75.2555721 125.433374,75.2847 125.323652,75.5268253 C126.067796,74.932981 127.224102,74.754937 127.980438,74.9311605 C127.98372,74.2593992 129.098295,74.858705 129.336496,74.5870876 C129.178945,74.5761647 129.046716,74.517909 128.941682,74.4115923 C129.263816,74.3963001 129.167223,74.1967743 129.488888,74.1814822 C129.601893,74.5109911 129.975137,74.3904746 130.243817,74.4483662 C130.272419,74.2710503 129.838218,74.2448353 130.104084,74.1166727 C130.960764,73.9997971 131.297903,73.988146 131.815568,73.5901865 C132.012506,73.8417785 132.029387,74.0981036 132.604258,73.9422696 C132.536736,73.7988149 132.51798,73.677206 132.562995,73.5850892 C132.277435,73.5381205 132.261961,73.9313466 132.078621,73.7077903 C132.577999,73.4012195 133.20867,73.8414144 133.463751,73.1722017 C133.634431,73.2086115 133.866067,73.1423457 133.891388,73.4307115 C133.691636,73.4445472 133.682727,73.1281458 133.401387,73.2803389 C133.679914,73.6360629 133.185693,73.766046 132.893569,73.8679935 C133.538775,73.7423796 134.284326,74.5492214 134.291828,73.8811011 C135.334192,73.836317 136.118192,74.0241917 137.241207,74.0649707 C137.266997,74.1898564 137.140394,74.2451994 137.15071,74.362439 C137.728863,74.4105 137.793102,73.7369181 138.052873,74.2320918 C137.585849,74.3580698 136.993159,74.4257921 136.866556,74.7072401 C137.050834,74.6741071 137.211198,74.6828455 137.32092,74.7786033 C136.816384,74.6875788 137.362652,75.1230403 136.521446,75.1587219 C136.7287,75.4569184 136.344202,75.4838617 136.437044,75.7307204 C136.721197,75.8064528 137.123045,75.684844 137.343427,75.873811 C136.694001,76.3008983 136.210566,76.351872 135.637101,76.1133876 C135.759015,76.0318296 136.175398,76.0835316 136.085838,75.9080362 C135.570986,76.0882649 136.304346,75.5264612 135.789963,75.7066899 C135.643197,76.1217619 135.304651,76.2197043 135.030345,76.4512709 C135.087551,76.0656908 134.683359,76.7866054 134.348096,76.3485951 C134.214928,76.4709322 134.267914,76.6744631 134.099579,76.7793234 C133.132239,76.4403479 131.694123,76.8790863 130.865109,76.9580957 C131.048917,77.0189001 131.326975,76.9195012 131.389808,77.1914827 C131.293683,77.2162414 131.30353,77.2886969 131.232257,77.3236503 C130.779769,77.0272743 130.306649,77.6061906 129.996238,77.178011 C129.502486,77.311271 129.553596,77.3833625 129.188792,77.2908815 C129.178945,77.4958688 129.403079,77.6666309 128.846495,77.7452762 C128.803357,77.5694167 129.038744,77.5169865 128.996074,77.3400348 C128.221921,77.4969611 126.967145,78.1719993 126.310686,77.8508647 C125.5928,79.4558099 122.852081,78.1832864 122.227038,79.374616 C122.178741,79.2650224 122.024473,79.3425753 121.96211,79.2591968 C122.23454,79.2428124 122.295966,79.1350393 122.145918,78.9344212 C121.665296,79.0880706 121.666234,79.048748 120.911305,79.070958 C121.252195,79.4903992 121.976645,79.2326176 122.395373,79.5144297 C122.253765,79.7223298 121.71031,79.7554628 121.3652,79.8745229 C121.594961,80.0831512 122.467583,79.8650564 122.731105,79.7955136 C122.743765,79.7926008 122.668272,79.5144297 122.817852,79.4965889 C122.959928,79.4802045 123.166713,79.6648023 123.312541,79.645141 C123.992445,79.5566651 124.760972,78.8943703 125.318025,79.307986 C124.956972,79.3505855 124.849125,79.5071478 124.843967,79.7066736 C126.383365,79.1026346 127.484811,79.085886 129.292419,78.5513898 C129.328055,78.6347683 129.257252,78.670814 129.26663,78.7421773 C129.815711,78.3959198 130.636755,78.5342771 131.185836,77.9782991 C131.212563,78.103913 131.08596,78.15962 131.097214,78.2775878 C131.472803,78.1082821 131.743358,77.8909155 132.01954,77.6760975 C131.899033,77.9276894 132.456085,77.8697978 132.612229,78.0766056 C132.519856,77.9000179 132.581282,77.7926089 132.798382,77.7540145 C133.060966,77.8195522 132.760401,77.9877656 132.998134,77.9793914 C133.452966,77.7543786 133.999235,77.5701449 134.306364,77.2785022 C134.374823,77.4296029 133.928431,77.6859281 134.285263,77.744548 C134.7129,77.1616266 136.58381,77.3465885 137.180719,77.2886969 C136.855772,77.2570204 137.371092,76.9489932 137.530049,77.1102887 C137.573188,76.8707121 137.044738,76.9438958 137.299351,76.8011693 C137.560997,77.096453 138.097887,76.7028628 138.264815,76.8375791 C138.535371,77.0971812 137.959562,76.9686545 138.079131,77.1590779 C138.545686,77.2526512 139.05116,77.2792304 139.591802,77.2453692 C138.837811,77.8322956 136.803255,77.6029137 135.791838,78.556123 C135.953609,78.7316184 136.184776,78.3798995 136.334355,78.3260129 C136.623197,78.8586887 136.686968,78.2877826 137.01426,78.4297809 C137.048489,79.1645313 135.962987,78.6460553 135.639915,78.9631849 C135.760891,78.9420672 135.878116,78.9289597 135.901092,79.0804246 C135.804498,79.1048191 135.815283,79.1772747 135.743073,79.2122281 C135.119905,79.3105347 133.929837,79.2766735 134.047531,79.7347092 C133.560813,79.8144467 132.959215,79.3425753 132.624421,79.6367667 C133.185693,79.6611613 133.723521,79.7270631 134.089732,80.0922537 C134.129589,80.2094933 133.419674,80.3183587 133.774163,80.3554968 C134.361694,79.9094764 134.642565,79.8879946 135.304182,79.6913815 C135.178048,79.5766905 134.841847,79.8301029 134.816996,79.5399166 C135.118029,79.4914915 135.525972,79.2581045 135.654451,79.5104246 C135.430785,79.7150479 135.97846,79.9105687 135.948451,79.7110428 C135.657733,79.7026685 135.903436,79.3848107 136.00425,79.330196 C136.073178,79.4481638 136.26824,79.3473086 136.423446,79.315268 C136.475963,79.4619996 136.551456,79.5690445 136.65602,79.6232951 C136.957054,79.5566651 137.072872,79.4048361 137.259963,79.2868683 C138.674165,79.4445228 140.03163,78.1243025 141.310319,78.1053694 C141.253582,78.1246666 141.200597,78.1450561 141.247955,78.2124143 C141.30563,77.7962499 142.011793,77.9356996 141.879095,77.6899332 C142.019764,77.7430916 142.598387,77.752194 142.582913,77.6080111 C142.467095,77.4772998 142.131363,77.7267071 142.037583,77.5592219 C142.019296,77.4601872 142.091975,77.4033879 142.161841,77.3458603 C142.503669,77.5100687 142.501324,77.3855471 142.73765,77.203862 C142.864722,77.2653946 142.993669,77.3258349 143.124023,77.3822702 C143.672167,77.111381 143.942722,77.0756994 144.495555,76.8623378 C144.545258,76.9759365 144.52322,77.0564022 144.499306,77.1354115 C144.720627,76.9875876 144.950857,76.9322447 145.20078,77.059315 C144.959297,77.2155132 144.814407,77.4175877 144.69812,77.6367749 C145.06433,77.3990187 145.771431,77.3302041 145.773307,76.9231422 C145.583871,76.9140398 145.47368,77.2610254 145.296436,77.0360127 C145.559488,76.8892811 145.7719,76.7188831 145.92945,76.5215418 C145.974934,76.674099 146.10013,76.6937603 146.279718,76.6198484 C146.151709,76.8809068 146.570905,77.0542176 146.796915,77.1368679 C146.740178,76.8164614 146.463996,76.8656147 146.375374,76.5972743 C146.847087,76.5634131 146.424609,76.4421684 146.597633,76.3620668 C147.071221,76.2091455 147.258781,76.5375621 147.682666,76.4698399 C147.673288,76.7603903 147.30192,76.8790863 147.210953,77.129586 C147.768475,77.0553099 147.673757,76.6700939 148.129528,76.5470287 C148.199863,76.7589339 148.050284,76.8510508 148.355069,76.8583327 C148.756916,76.1989507 150.04639,76.0798906 150.769433,75.8279346 C150.563586,75.6520751 150.539204,76.0467577 150.356333,75.8352166 C150.335232,75.711059 150.528419,75.6903054 150.577653,75.5989168 C150.708945,75.7907966 151.015606,75.6899413 151.057338,76.033286 C151.478879,75.6091115 152.159252,75.7201615 152.803989,75.4419904 C152.939032,75.5457584 153.271482,76.0161734 153.406994,75.6695518 C153.286956,75.6859363 153.172076,75.696131 153.152851,75.544302 C153.52375,75.3735399 153.804621,75.3090945 154.453579,75.159086 C154.735387,75.7325408 155.499694,75.5086204 156.002354,75.7161564 C156.167876,75.5483071 155.806823,75.5392047 156.00423,75.4430827 C157.12912,75.6338702 157.706336,75.459103 159.068959,75.3833706 C158.496901,75.6593571 159.704318,75.3618888 159.381246,75.6764697 C159.734327,75.3968422 160.440959,75.1008303 160.740117,75.1925831 C160.609294,75.2854282 160.443304,74.8277566 160.618672,74.855064 C160.865782,74.9642935 160.756998,75.1605424 161.057562,74.9428117 C161.110079,75.2577567 161.262941,75.4095857 161.522711,75.3855552 C161.635247,75.3061818 161.42096,75.0593231 161.591639,75.0087135 C161.93206,75.0808049 161.984577,75.0021597 162.218558,75.0549539 C162.098989,75.1303223 162.034749,75.2351826 162.024903,75.3673503 C162.318434,75.2424646 162.23919,75.5089845 162.209649,75.6000091 C162.528501,75.6142089 162.843133,75.6353266 163.084616,75.7736839 C162.935975,75.3615247 162.624156,75.2024137 162.754979,74.847782 C162.441286,74.8688997 162.356415,74.5193654 162.167917,74.3395008 C163.548827,73.9936074 165.518206,73.9211519 166.936158,74.3052756 C166.846599,74.6165796 166.935221,74.8656228 167.292991,75.0451233 C167.31456,73.3182051 169.742054,74.8055466 170.724399,73.888383 C170.699079,73.3913889 170.4726,73.3862915 170.291136,72.8914819 C171.057787,72.8146572 171.079356,72.3380525 171.294112,71.9648518 C171.806151,71.7001523 172.072017,71.732193 172.656735,71.506088 C172.701281,71.6080355 172.750046,71.7005164 172.901032,71.6375274 C173.133137,71.5071803 172.598123,71.5315748 172.668458,71.2333783 C173.294908,71.0458677 173.193156,70.2069853 173.86931,70.265241 C173.53264,69.8399742 173.635798,69.5224805 173.66487,69.3138522 C173.702381,69.4238099 173.96309,69.3673746 173.949492,69.2563247 C173.788659,69.2585093 173.918544,69.1347158 174.112669,69.1358081 C173.953243,69.3102112 174.790698,69.6877811 174.762564,69.2825397 C174.373377,69.1809563 173.729109,69.1492798 173.855243,68.6453677 C173.53264,68.753869 173.341329,68.6708546 173.201128,68.5044617 C173.273338,68.3548173 173.364305,68.21646 173.474027,68.0875692 C173.331951,67.9266377 173.121415,67.8676538 172.955893,67.7413117 C173.301003,67.38668 174.310544,66.9483056 174.985291,67.4409306 C175.330401,67.2563328 175.521712,66.4378398 176.049225,66.968331 C175.925904,67.0189407 175.662382,67.223928 175.610334,67.501735 C175.990143,67.4332846 176.314153,66.8084919 176.727254,67.1991694 C176.111588,67.9040636 174.966535,68.4614981 173.800382,68.4753338 C174.644401,68.8157657 175.827904,68.1917013 176.668641,67.660846 C177.130039,67.7828189 177.997034,67.5184836 178.42514,67.1471033 C178.66381,67.1634877 178.765561,67.3815826 179.0047,67.3965106 C179.713207,67.2341228 181.109122,66.1192539 181.337476,67.1376368 C181.714471,67.2108205 181.308873,66.8379839 181.546605,66.8314301 C181.736041,66.8813116 181.9236,66.9330135 181.957361,67.2082718 C181.257763,68.1214303 180.070978,68.7964685 179.297762,69.6801351 C179.623647,69.8512613 180.042844,69.8825737 180.191016,70.3194917 C182.29028,69.9360962 182.448299,67.7777215 184.618836,67.4587714 C184.078195,66.7138263 184.869697,66.2091861 184.177133,65.5650963 C184.344999,65.5425222 184.468319,65.4940971 184.533965,65.4125391 C184.236683,64.7495161 183.9394,64.3016752 184.264817,63.7588047 C184.223085,63.6171704 183.984884,63.7573483 183.928616,63.6386522 C184.251688,63.5840375 184.091324,63.2538004 184.167286,63.0590078 C184.073975,62.9508706 183.794042,63.1103456 183.734022,62.9563321 C182.798098,61.1358406 181.933447,60.2867634 180.494394,58.4167547 C179.608174,58.1425886 179.037992,57.4154844 178.159273,57.1231135 C178.302288,56.7353488 177.473742,56.4870337 177.631761,56.0533927 C177.415598,56.1207509 177.25711,56.1040024 177.188182,55.9590912 C177.418881,55.9390658 177.552048,55.8680667 177.531417,55.713689 C177.072833,55.8782614 177.229445,55.3550522 177.206,55.3251961 C176.732412,54.7182443 175.759914,54.3377616 175.332746,53.6121137 C176.302899,53.1001915 177.6538,54.009709 178.406852,53.4071264 C178.828862,53.5818935 179.412642,53.5327403 179.622241,54.0013348 C179.313236,54.0712416 179.048776,54.1629944 179.128489,54.4455347 C179.89936,54.6519784 180.698834,54.8187354 181.693371,54.7131469 C182.050203,55.4486254 183.269812,54.9920462 184.076319,55.102368 C184.121802,55.2724019 183.838118,55.2578379 183.975037,55.4792097 C184.483793,55.3255602 185.079765,55.2330793 185.692617,55.1937566 C186.305468,55.1635365 186.933794,55.1846542 187.50679,55.2465509 C188.160436,56.1822835 190.307528,55.6263054 190.623097,56.6257552 C191.116849,56.6537908 191.643892,56.6395909 191.923356,56.9527155 C191.897567,57.4005563 191.60638,57.6896504 191.860055,58.3006073 C192.227672,58.72551 193.030897,58.5660349 193.506831,58.8409292 C193.458065,58.5176099 193.979481,58.1480501 194.392113,58.3450273 C194.366793,58.5241636 194.144534,58.5871527 194.087797,58.7488123 C194.592333,59.2010224 194.604994,59.6434018 195.025128,60.1210987 C195.336477,60.0471868 195.796468,59.8644094 195.95308,60.2558151 C195.793655,60.3311834 195.492621,60.0613866 195.47152,60.3239015 C195.781932,60.2918608 195.83398,60.6013444 196.131731,60.5856881 C195.996219,60.0096846 196.508258,60.5077711 196.708009,60.503766 C196.939177,60.2714713 196.561712,60.0872376 196.737081,59.788677 C197.9309,59.5563823 199.161292,61.0896002 199.800403,60.1527753 C199.650355,60.0508278 199.363388,60.1272884 199.108307,60.1622418 C198.317742,59.5188802 197.351339,59.0990748 196.376028,58.6850951 C196.377904,58.5649427 196.474497,58.5015896 196.391033,58.3271865 C196.066554,58.421852 195.929635,58.6304803 195.581243,58.7091256 C195.409157,58.5583889 195.232382,58.4134778 194.841319,58.5481941 C195.142822,58.0978046 194.454008,58.2168647 194.383673,57.9011915 C194.667826,57.7311576 194.618592,57.6983887 194.45307,57.3594132 C194.646257,57.3313777 194.518716,57.1070931 194.800056,57.1322159 C195.720506,57.2134098 196.791473,57.3615978 197.93512,57.2195995 C197.385569,56.7018517 196.407444,56.7346206 195.649702,56.4782954 C195.609846,55.6925713 195.194401,55.5119785 194.496678,55.0433841 C194.153912,54.9818514 194.489175,55.332114 194.145941,55.2702173 C193.650783,54.4397091 192.555902,53.9237818 192.531988,52.8431381 C193.771759,52.7153396 193.516209,51.7173462 194.799587,51.6245012 C194.727845,51.2374647 195.088898,51.1103944 195.113281,50.7805213 C195.041539,50.6093951 194.860075,50.5809955 194.733003,50.4794121 C194.745195,50.2398354 194.958544,50.1215034 195.13063,49.9784128 C195.185023,48.7961857 193.936812,49.2487599 193.721118,48.4018673 C194.545912,48.0548816 195.868679,48.0024514 196.415416,47.4868883 C196.009817,47.4697756 195.718631,46.9156181 196.016382,46.6549237 C195.399779,46.459767 195.172831,45.7814519 194.522936,45.6234332 C193.619366,46.1950676 193.900237,47.170851 192.831146,47.7282854 C191.846926,46.4317314 188.920053,47.1024005 187.930675,46.9742379 C188.068063,46.9898941 188.166063,47.0517908 188.199354,47.1992506 C187.730455,47.348895 187.465526,47.2331118 187.146206,47.1875995 C187.306569,47.5214776 186.682933,47.4126122 186.630885,47.6270661 C186.798751,47.6780399 186.984435,47.704619 187.023354,47.9212575 C185.438942,48.1309781 184.707458,48.7706988 183.164309,49.1719351 C183.176501,49.275339 183.248242,49.4118759 183.1343,49.4461011 C180.983457,49.7341029 179.685073,50.405136 177.779465,50.9188787 C177.794001,51.0219185 177.867618,51.1577272 177.754613,51.1915883 C177.299311,51.1093021 176.77133,51.2087009 176.506871,51.2305468 C176.588928,51.2345519 176.642383,51.2818847 176.655512,51.383104 C175.072975,51.5371176 173.179558,52.3818256 172.481835,51.1839422 C172.654859,51.2527568 172.753797,51.2298186 172.755204,51.042308 C172.427912,50.9673038 171.830065,50.7896238 172.018094,50.3727313 C171.53794,50.5722571 171.042782,50.1353392 171.205022,49.8076507 C171.137031,49.6980571 171.011366,49.6722062 170.998237,49.486516 C170.655002,49.4763213 170.767538,49.453019 170.624055,49.6478116 C170.59217,49.5305719 170.517615,49.4694034 170.443528,49.4118759 C170.598734,49.3740097 170.795672,49.3572612 170.691107,49.1846786 C170.034179,49.3871172 170.434619,48.8293186 170.102169,48.6669308 C169.731739,48.7830782 170.02105,49.2403856 169.431643,49.2436625 C169.604667,49.0113678 169.292848,48.9192509 169.243145,48.64909 C169.312542,48.6625616 169.697509,48.7874473 169.64593,48.5729934 C169.384753,48.6134084 169.384753,48.2875404 169.209384,48.2059824 C169.03214,48.2332897 168.901317,48.2842635 168.832858,48.3672779 C169.102475,47.9900721 168.314255,48.4743228 168.395843,48.000995 C169.135767,48.1003939 169.655308,47.8455251 170.285509,47.5535183 C170.726744,48.0763634 171.852103,47.6401736 172.290524,48.1622906 C172.184084,48.2260078 172.089835,48.2959147 172.042008,48.389852 C172.28396,48.4138825 172.385242,48.6396234 172.574209,48.7390223 C173.636736,48.4200722 174.195195,49.7690563 175.397454,49.6430783 C175.283511,49.1810376 175.783827,49.0627056 176.298679,49.1173204 C176.169732,48.6920536 176.527502,48.7404787 176.926536,48.7393864 C176.469359,47.9795132 177.539857,47.6998858 176.979991,47.1173285 C177.145981,47.204348 177.388402,47.1642972 177.358862,46.9622226 C177.243981,46.8387933 176.869799,47.067447 176.879646,46.7765325 C176.860421,46.6469135 177.101436,46.656016 177.258986,46.6206984 C176.944354,45.7370319 175.783827,45.9915366 175.208956,45.4563121 C176.66489,44.6920698 177.778996,45.8036619 179.016891,45.3296059 L179.113484,45.6704019 C180.424997,45.7617906 180.005332,44.3516379 181.083332,44.3410791 C181.46783,43.7283017 182.066146,43.2189282 182.920012,42.8628401 C182.799036,42.7689027 183.493477,42.5042032 183.499572,42.236591 C185.207305,41.9620609 183.089285,40.6174459 183.2323,40.0490885 C182.815917,39.7745584 182.306223,39.6161757 182.022538,39.1701553 C182.403285,39.0998843 182.281371,38.9662602 182.056299,38.8978097 L182.472213,38.831908 C182.300596,38.2992322 182.669151,38.2187664 182.13695,37.9933896 C181.17805,38.4008156 180.152097,38.2071153 179.512518,37.5415436 C179.672882,37.505862 179.532681,37.3088848 179.77604,37.3165309 C179.75869,36.91311 179.201169,37.2065732 179.113484,36.8956333 C179.863255,36.8934487 180.123026,37.5262515 180.828251,37.5812304 C180.677265,37.354033 180.914059,37.3340076 180.816059,37.13521 C180.613495,37.150138 180.613026,37.2721109 180.424059,37.2928645 C180.582078,37.0918823 180.142719,37.0674877 180.073791,36.816624 C179.627867,36.9069203 179.651312,36.7438043 179.17069,36.705574 C179.167877,36.8577671 178.639427,37.0973437 178.465465,36.9174792 C179.127551,36.8370135 178.229608,36.7139482 178.681159,36.5213402 C177.748986,36.5399093 177.424976,36.3531268 176.915751,36.4714588 C177.228976,36.2952352 177.430134,36.0596636 177.349015,35.6799091 C177.084555,35.7865899 177.096278,35.5375467 176.962172,35.4781987 C175.583607,35.5371826 174.795387,34.7678429 173.157989,34.8858108 C173.439798,34.3465812 174.479817,34.4612722 175.473885,34.1248453 C175.570947,33.8361154 175.815713,33.6242102 175.649722,33.1982152 C174.536554,33.4676479 172.904314,33.0365556 171.832409,33.7742187 C170.971978,33.3737106 169.569499,34.4929487 168.29925,34.5282662 C167.799872,34.542102 166.668417,34.7882324 166.576512,35.3929997 C165.082598,35.6252944 163.610721,36.1805443 161.763725,36.5988932 C161.569601,36.4030083 161.963477,36.1699854 161.548969,36.2813995 C161.159314,36.8300956 159.85249,36.8049728 159.407035,37.1665224 C161.18651,36.8814334 162.807496,36.742712 164.57431,36.4011878 C164.637143,36.5162429 164.791411,36.5115096 164.863153,36.6163699 C163.679181,36.6447696 162.608214,38.2154896 162.61431,37.5113235 C162.544443,37.6413066 161.993486,37.3977248 161.627276,37.5298925 C161.622118,38.3374625 160.550682,37.7396131 159.896567,37.9704514 C160.002069,38.187454 159.518165,38.1193676 159.69916,38.3720518 C159.816385,38.6214591 160.178375,38.5289782 160.28294,38.7962263 C159.845926,39.5109513 159.033322,39.2495287 158.097867,39.509859 C158.016279,39.3966244 157.923906,39.391527 158.01159,39.2560825 C157.784642,39.3667683 157.109896,39.7006465 157.024087,39.2750156 C157.480795,39.0074033 157.215867,39.2710105 157.568948,39.2546261 C157.673982,38.906184 157.392173,38.7791137 157.058317,38.7259554 C157.313867,38.4969375 157.145063,38.0625683 157.552068,37.9038214 C157.354661,37.9314929 157.186326,37.9183854 157.078948,37.8182583 C157.090202,37.6125428 157.411398,37.553923 157.35091,37.3125258 C156.999704,37.490934 156.495637,37.5247951 155.943742,37.417022 C156.101292,37.8619501 155.397943,37.8433811 155.204287,37.8448375 C155.252115,37.5801381 155.530172,37.4727291 155.868249,37.5226105 C155.54377,37.1781736 156.242431,37.3238129 156.035646,37.0365393 C155.575656,36.9895706 154.81088,38.2861246 154.027349,37.6434912 C154.999847,37.5826867 155.012038,37.0704005 155.503914,36.783491 C155.447646,35.5914332 154.317129,36.1918313 153.542975,35.9355061 C152.695205,36.2398923 151.198008,36.0410946 150.612821,36.4736434 C150.971529,36.5060481 151.627989,36.2042106 151.90042,36.650231 C151.830085,37.1159127 151.215357,36.572314 151.236458,36.9750067 C151.730678,36.9888424 151.855405,36.7514504 152.152688,37.050011 C152.016707,37.0802311 152.110956,37.2174962 152.005922,37.2622803 C151.552496,37.2517214 150.99263,37.109359 150.969185,36.8504851 C151.095319,37.1071744 150.595003,36.7008407 150.68972,37.0012218 C150.867433,37.0401803 150.935424,37.2400703 151.045615,37.3784276 C151.546869,37.2480804 151.920582,37.301967 152.125491,37.6001635 C151.5253,38.2034743 150.743175,37.8546682 150.343204,38.5267936 C150.188936,38.3600366 149.479021,38.3421958 149.354763,38.5573779 C149.536227,38.5071323 149.625318,38.5894185 149.651576,38.7660062 C148.021212,38.7263195 147.173441,38.9611628 145.794876,39.1610528 C146.076685,38.8300875 146.332704,38.9090968 146.729862,38.6771662 C146.470561,38.5865057 146.131546,38.6159977 145.958991,38.3971746 C146.240331,38.1433981 146.471498,37.931857 146.360369,37.6678857 C146.904293,37.4749137 147.159843,37.0896977 147.847719,37.1599686 C147.494638,36.8410185 147.08013,37.1388509 146.782379,37.3008747 C146.752838,37.2164039 146.663278,37.2182244 146.618264,37.1552354 C146.947432,36.5901548 146.596226,36.2733893 146.169527,35.6187406 C148.150628,34.7186896 150.26818,35.3500361 152.227712,34.4044728 C153.024841,34.3258276 153.97999,34.6141934 155.079091,34.2504592 C155.106287,34.4620004 155.333235,34.3950063 155.328077,34.6513315 C156.181474,34.260654 157.126776,34.3462171 157.845599,34.5027794 C157.748537,33.9034736 158.79137,34.5107895 159.070834,34.1645321 C159.151016,34.2770384 159.243389,34.2824999 159.154298,34.4190368 C159.776528,33.7228808 160.664624,34.693931 161.534433,34.2074957 C161.067878,34.2366235 161.768883,33.6693584 160.978318,33.8688842 C160.898605,34.090256 161.351094,34.1332196 161.089917,34.2078598 C160.949715,33.6879274 160.119763,33.967919 159.661179,33.5936259 C159.23448,34.1845575 158.497839,33.8459461 157.674451,33.9955905 C157.538939,33.8474024 157.180699,33.3682491 157.009551,33.6795531 C157.421245,33.5517546 157.028776,33.9941341 157.047532,34.1230249 C156.449216,34.2511874 155.811981,34.0935329 155.259617,34.1241171 C155.314479,33.6930248 155.340737,33.8277411 155.828862,33.8284693 C155.712105,33.5142525 155.630048,33.6111027 155.656306,33.3201881 C155.137234,33.3110857 155.200536,33.5772415 155.009694,33.7225167 C154.96421,33.1279442 153.734755,33.7527369 153.269607,33.5462932 C153.35354,33.7254295 153.277578,33.8328385 153.045942,33.8656074 C153.044066,33.7363525 153.121903,33.6966658 152.95732,33.6129232 C150.969185,34.0553026 149.247854,34.7234229 147.367566,34.9054721 C146.857872,35.3099853 145.1839,35.95007 144.962579,35.071865 C142.636836,35.1082748 140.558673,35.9737364 138.112892,36.2580972 C137.492069,36.8533979 136.484872,37.0004936 135.710719,37.0070474 C135.825599,37.0063192 135.568642,37.2520855 135.332785,37.1880042 C134.451254,36.9517044 135.621628,36.4590794 136.237293,36.3356501 C135.716814,36.4951252 136.02113,35.783313 136.050202,35.5568439 C137.118356,35.0678599 138.064595,34.8737955 138.990672,34.4212213 C139.272481,34.393914 139.397677,34.6003577 139.708558,34.5315431 C140.022252,34.1033635 140.686682,34.4860308 141.192156,34.2868691 C141.48053,34.1732704 141.565869,33.7600189 141.864559,33.679189 C142.198415,33.5903491 142.634961,33.8732534 142.924272,33.8037107 C143.097296,33.7636598 143.343937,33.5481137 143.484607,33.4956835 C143.469602,33.5015091 143.47476,33.679189 143.442406,33.6871992 C143.753287,33.6162 143.817526,33.3474955 144.07589,33.2710349 C144.12278,33.2579273 144.242818,33.4953194 144.272828,33.4996886 C144.701402,33.556852 144.998684,33.0099764 145.395374,32.8821779 C145.783623,33.0569451 145.1839,33.3442186 145.652331,33.2783168 C145.575431,32.98631 146.03636,32.9393413 146.126857,32.7230669 C146.591537,33.1257597 147.290666,32.4303319 147.324427,32.9185877 C147.978073,32.6123811 149.156418,32.1401456 149.817567,32.0210855 C149.691433,32.0323725 149.656734,31.9122201 149.622974,31.7906112 C150.411663,31.6300439 150.665338,31.567419 151.029204,31.3067246 C151.06062,31.3919236 150.980907,31.4257848 150.984189,31.4989685 C152.149405,31.197131 153.137377,30.9178677 153.918095,30.8723554 C153.985148,30.7398236 154.004842,30.582169 154.119253,30.4714832 C154.459205,30.637512 154.495311,30.5275543 154.617694,30.2799675 C154.884029,30.3935661 154.910287,30.7500183 155.15599,30.5315594 C154.714756,30.3662588 155.476718,30.1674611 155.673656,30.0658777 C155.732737,30.2333629 155.997665,30.1150309 156.00001,30.3607973 C156.097541,30.5497643 155.72711,30.5169954 155.768842,30.6786551 C156.454843,30.5140827 156.36669,30.2628548 156.279005,29.8536084 C155.980785,29.7680453 155.556431,29.8554289 155.241799,29.7920758 C155.2071,30.3131004 153.973425,30.2508396 153.657387,30.1128464 C153.79665,30.0837185 153.701932,29.9453611 153.811186,29.9020334 C153.860889,29.9977913 153.874487,30.1445229 154.003904,30.1332359 C154.440918,29.4873255 155.200536,29.6468005 156.058622,29.5361147 C155.698507,29.2528462 156.171158,29.2379182 156.071283,28.9018555 C155.236172,29.0729817 154.403875,29.2735998 153.636286,29.3944804 C154.025473,29.4909665 153.411683,29.7079691 153.328688,29.8179267 C153.082985,29.7352764 152.405893,29.6216778 152.295233,29.766953 C152.424181,29.7542095 152.456066,29.8750902 152.48842,29.9974272 C151.919176,29.7159792 151.332582,30.0068937 150.691596,30.0200013 C151.366812,29.9246075 150.990754,29.7840656 151.443711,29.5870884 C150.943395,29.5721604 150.647051,29.519002 150.42151,29.8962079 L150.332888,29.6435237 C149.444323,30.1354204 147.713614,29.9111359 146.550274,30.4565551 C146.498695,30.3604332 146.481345,30.2129734 146.353805,30.226445 C145.362082,30.7704079 143.55588,30.5606872 143.13809,31.0260048 C142.98054,30.7208905 143.454129,30.4849548 143.776263,30.6083841 C143.492578,30.0422113 143.054157,30.6258608 142.806109,30.7365467 C142.820645,30.7299929 142.728272,30.5759794 142.744215,30.5694256 C142.363468,30.7529311 142.31564,31.1698237 141.887066,31.3089092 C141.340329,31.4862251 141.018195,31.0831683 140.332663,31.386098 C140.699812,31.7323555 139.573046,31.5845316 139.384079,31.8743538 C140.523974,31.6642691 138.277007,32.5537612 138.068815,31.989773 C138.425648,31.938071 138.392825,31.7145147 138.601016,31.596911 C138.040681,31.7603911 138.264346,31.5790701 138.02427,31.2721353 C137.596633,31.4687484 137.450805,31.2470125 137.12492,31.2936171 C137.275437,31.5503064 137.684318,31.426513 137.909858,31.5706959 C137.765437,31.6001878 137.697447,31.6628127 137.629925,31.7254377 C137.348116,31.6777408 137.027389,31.293253 136.938298,31.7003149 C136.891877,31.5513987 136.816853,31.4443538 136.706662,31.3882826 C138.314519,30.811551 138.882356,30.5402977 140.57274,30.5137186 C141.419573,30.0458523 142.61386,30.3626178 143.437717,29.6843027 C143.506177,29.8401367 143.803928,29.6642773 143.842378,29.8652595 C145.05589,29.3285786 146.781441,29.9093154 147.630619,29.0449461 C147.327709,29.0951916 146.934303,29.2732357 146.83302,29.0358436 C147.169221,28.989239 148.547786,28.3768257 148.428217,29.055869 C148.662198,28.9502805 148.866169,28.8315845 149.240351,28.7904414 C149.277394,28.4008562 148.690332,28.8945735 148.624686,28.6506276 C149.087959,28.5104498 150.094218,28.1190441 150.610476,28.4958859 C152.521243,28.0615166 153.955607,27.6511779 155.381531,27.8674522 C155.299943,27.4170627 155.659589,28.0214658 155.864029,27.9501025 C156.098948,27.7873506 155.626766,27.5565123 155.827924,27.5066308 C155.934364,27.485149 155.931551,27.4126935 156.01267,27.3788323 C156.398575,27.2215419 156.459532,27.5088154 156.734307,27.503718 C156.785886,27.2422955 157.335436,27.2149881 157.740566,27.1192303 C158.031752,27.7403819 158.667112,27.1800347 159.098968,27.1163175 C160.860156,26.8428797 163.276396,26.7096197 164.651679,26.403413 C163.485994,26.3666391 163.187305,26.6437179 162.161352,26.4238025 C160.989103,26.9972573 159.240107,26.8301362 157.87514,27.1825834 C157.821216,26.9684936 157.621465,26.9546578 157.522527,26.8031929 C157.60646,26.6517281 157.880298,26.5901955 157.969858,26.4416434 C157.498613,26.3433368 156.5369,27.0941075 155.678345,26.7238195 C155.711168,27.0150982 155.317292,26.9262582 155.067368,26.9371811 C154.916383,27.5830915 153.307588,27.874006 152.660037,27.8769188 C152.62909,27.7130746 153.622688,27.6704751 153.240066,27.5783582 C152.921683,27.640619 152.595329,27.7167155 152.514678,27.4542007 C152.684889,27.3679094 153.174889,27.4305343 153.124717,27.2401109 C152.741626,27.1836757 152.103922,27.4826003 152.099233,26.9080533 C151.634085,26.9393657 152.353377,27.1989678 151.899013,27.3129305 C151.85353,27.2524902 151.777099,27.2346494 151.658467,27.2747002 C151.389788,26.9153352 151.709577,26.8243106 151.771472,26.6156823 C151.220046,26.4918889 151.312419,26.8454284 151.330237,26.9816011 C150.923701,26.8264952 151.496228,26.6018466 151.1544,26.4758686 C150.653615,26.4332691 150.157519,26.4944376 149.93151,26.5570625 C150.057644,26.5490523 150.129854,26.6149541 150.202065,26.6797636 C149.996687,26.6702971 149.849921,27.0212878 149.673615,26.7937264 C149.793653,26.7544038 149.979806,26.744209 149.961519,26.6411692 C149.290524,26.5370371 148.400083,26.9488323 147.908207,26.6287899 C147.688762,26.7962751 148.188609,26.8417874 147.921805,26.9881549 C147.356781,27.236834 147.269097,26.8112031 146.848963,26.8563513 C146.835365,26.9910677 147.128427,27.2648696 146.893508,27.2994589 C146.505728,27.3402379 145.923355,27.6566393 145.850675,27.251762 C145.941173,27.1661989 146.630455,27.0030829 146.319575,26.9695859 C145.782685,27.2605004 145.299718,27.1629221 145.170771,27.5790864 C144.708435,27.5685275 145.083555,27.1090355 144.670924,27.1425325 C144.542445,27.2248188 144.772206,27.4698569 144.580895,27.5244716 C144.384895,27.4014064 143.139497,27.2859873 143.779545,27.5153692 C143.305956,27.5361228 143.225775,27.5699839 142.593229,27.6915928 C142.620894,27.8201195 142.744215,27.992702 142.611516,28.0509578 C140.742013,28.1387055 139.364385,28.8650815 137.723236,28.9732187 C137.736834,29.1272323 137.960031,29.1538115 137.817954,29.2248106 C137.179312,29.2251747 136.653207,29.2157082 136.382183,29.640975 C136.334355,29.5266481 136.361082,29.4454542 136.391561,29.3653526 C136.018317,29.615124 135.396556,29.5532273 134.96845,29.5117201 C135.127407,29.1101197 135.773551,29.2721434 135.68446,28.7066988 C134.974546,28.918604 134.927187,29.6915846 134.031589,29.7323636 C133.96266,29.9577405 134.420306,29.9832274 134.161474,30.06697 C133.804172,30.0367498 133.731493,30.0982824 133.569253,30.2985365 C133.466096,30.0112629 133.143493,30.0585957 132.887473,30.0025246 C132.178966,30.5108058 131.16286,30.1292308 130.593147,30.8181047 C128.845089,30.9761234 126.454638,31.6274952 125.273479,32.2795952 C125.099518,32.0979102 124.661565,32.3302049 124.589355,31.9894089 C124.122331,32.4383421 123.587785,32.0057933 123.315823,32.4834903 C123.446177,32.4627367 123.570436,32.4496291 123.58966,32.6000017 C123.371153,32.7318053 123.33833,32.7201542 122.902253,32.8610602 C122.838483,32.7321694 122.798627,32.5686893 122.593717,32.6611702 C122.479775,33.2808655 121.438349,32.9495361 120.910367,32.982669 C120.946942,33.1545234 121.117621,33.1144726 121.218903,33.1814667 C120.835812,33.3231009 120.111831,33.5619494 119.844089,33.1523388 C120.071506,32.9979612 120.351908,33.4214075 120.394578,33.1093752 C120.24031,33.1224828 120.20186,32.9549976 120.086042,32.9105776 C119.155276,33.66062 117.558203,33.9005608 116.80515,34.0094262 C116.528968,34.0509334 116.518184,34.3662425 116.397207,34.3895448 C116.069915,34.4518056 115.663848,34.145963 115.16869,34.4241341 C115.260126,34.3724322 115.021456,34.453262 114.758872,34.527538 C114.658058,34.5563018 113.659771,35.001594 113.256048,34.7245152 C113.124756,34.5268098 114.006757,34.4059292 113.663053,34.345853 C113.307158,34.46819 113.223225,34.597809 112.843885,34.5530249 C113.103656,34.9626355 112.453292,35.0350911 112.197741,34.9003747 C112.470641,34.693931 112.923129,34.5628556 112.943761,34.2515515 C112.36467,34.5446507 111.32887,35.2069454 111.097703,34.4437954 C111.131464,34.5282662 110.963597,34.5938039 110.893731,34.4958615 C111.221023,34.1823729 110.980947,34.0465642 111.261349,33.7581984 C110.246181,34.8104424 108.69084,33.916217 107.945759,35.2615602 C107.855261,35.1100953 107.982333,35.0489268 107.905433,34.9032875 C107.586113,34.9768353 107.726783,35.2397143 107.263979,35.2539141 C107.219902,35.0915263 107.071261,35.1006287 107.020151,34.9487998 C106.769289,35.0492909 106.479978,35.1363104 106.379165,35.2990623 C106.814773,35.146141 107.082514,35.2699344 107.269136,35.5291724 C106.537184,35.5797821 106.367911,36.042551 105.570782,35.7858617 C106.012485,35.7618312 105.770533,35.4581733 106.212236,35.434871 C106.028897,35.264473 105.953404,34.9185796 105.591882,35.0434653 C105.62705,35.1708997 105.759279,35.3394772 105.632207,35.4013739 C105.538896,35.0081478 104.158924,35.2382579 103.58546,35.3791639 C103.610781,35.7174112 103.940886,35.5495619 104.004656,35.8229997 C103.843824,35.7600107 103.604685,35.8226356 103.358982,35.8990963 C103.484178,35.6416788 103.42791,35.6853706 103.245508,35.375887 C102.8868,35.3871741 103.223938,35.6846424 102.945412,35.7301547 C102.821622,35.4115687 102.339594,35.6992063 102.160005,35.4760141 C101.837871,35.8710607 101.609986,35.6751758 101.58232,35.4450657 C101.295823,35.7749388 101.110607,35.734888 100.953526,36.0727712 C100.714387,35.9522546 100.917421,35.964634 100.810043,35.7414417 C100.413822,35.942424 100.440081,35.8918143 100.066368,35.846302 C99.9510183,35.9802902 99.9219465,36.14996 99.8070661,36.2843123 C99.5533913,36.1637957 99.3719271,36.3378347 99.5974679,36.0629405 C98.4120894,36.1911031 98.4500703,37.231696 97.829247,37.1770813 C98.030405,37.8047867 97.4625674,37.6879111 96.9931988,37.5826867 C96.9378686,37.8084277 97.389888,37.824448 97.1376199,37.9143803 C96.7789116,37.8040585 96.5561842,37.8918062 96.1937248,38.0723989 C95.9911601,37.8310018 96.2401458,37.7738383 96.2138874,37.6048967 C96.0488347,37.8007816 95.6587102,37.7323311 95.6441743,37.8477503 C95.8096959,37.8553964 95.9470835,37.9114675 96.056806,38.0155996 C95.8176672,38.076404 95.8218873,38.2369714 95.4870929,38.2591814 C95.4500498,38.1754388 95.4139445,38.0931525 95.3773703,38.0105022 C94.724193,38.6906378 93.3596948,38.5959723 93.1510344,39.0711205 C92.8612544,39.2298674 92.8476563,38.9120096 92.6404026,38.9302145 C92.6858859,39.0452696 92.7674744,39.1002484 92.8495319,39.1515863 C92.6849481,39.4075473 91.2247943,39.0893254 92.0472444,39.3674965 C91.5577131,39.4607057 91.2735599,39.1745244 91.071933,39.4446854 C91.3166986,39.406455 91.4053207,39.6048886 91.1821244,39.6922722 C91.2721532,39.5327972 91.1427368,39.410096 90.8712439,39.498936 C90.8384209,39.6660571 90.636794,39.7639996 90.4792437,39.8808751 C90.6503921,39.5837709 89.9512626,39.8557523 89.8415401,39.9609767 C89.9273487,39.9573358 90.0398847,39.910003 90.0783345,39.9893764 C89.8931191,40.0771241 89.4251571,40.3935255 89.1761714,40.2318659 C89.1864872,40.1004264 89.556918,40.1153544 89.5044012,39.9591562 C89.1006785,39.9034492 89.1067742,40.1903587 88.7747932,40.340003 C88.4010801,39.887793 87.9401517,40.9779032 87.5626874,40.3884281 C88.5065826,40.4900115 88.5595682,39.2910359 89.3309083,39.8197066 C89.1424106,39.3485634 89.603339,39.5382586 89.9864301,39.2735592 C89.7552625,39.0441773 90.0544206,39.0307056 90.0398847,38.8905278 C89.54754,38.9484194 89.7941812,39.0587412 89.7121238,39.1632374 C89.5789562,39.0998843 89.3313772,39.2367852 89.3013676,38.9961163 C89.4134346,38.9516963 89.5920854,38.9331273 89.5653581,38.8315439 C89.1803915,39.0092238 88.9248411,38.9640756 88.7532238,38.7740163 C88.3119892,39.1064381 87.8384004,38.9720858 86.783376,39.3966244 C86.6614621,39.5921452 87.0337685,39.6147193 86.7308593,39.7800199 C85.2664854,39.7548971 84.403241,40.8045925 83.3158625,40.8930683 C83.2234893,41.1985468 83.7120828,41.3190633 83.2384941,41.4698 C82.939336,41.4202827 82.934647,41.2331361 82.91636,41.0015696 C82.1478333,41.5761167 81.3347612,41.2371412 80.3875837,41.5954139 C80.2867703,42.4088095 78.6170183,42.0989619 78.2620612,42.8227892 C78.6695351,42.5817562 79.2603487,42.4164556 79.6242149,42.6360068 C79.3864828,43.0379713 78.2653435,43.447946 78.1621856,42.8500966 C77.7514294,43.2921119 77.0035343,42.7852871 77.047142,43.3398088 C76.7015629,42.8471838 75.5841749,43.1745082 75.0168062,43.5233143 C75.1007392,43.4719765 74.8287774,43.470156 74.5821361,43.5491653 C73.2973509,43.9678784 71.62713,44.285008 70.5697611,45.0164814 C70.5008329,44.8897752 70.4539429,44.725931 70.2593495,44.822417 C70.3432826,45.0365068 70.4323735,45.2527812 70.1482203,45.3168625 C70.0037991,45.1541106 70.3104596,44.977887 69.9376843,45.0962189 C69.9053302,45.2615196 69.7360574,45.4242715 69.4795692,45.3143138 C69.3140476,45.492722 69.6947942,45.481799 69.4922295,45.5888439 C69.302794,45.6285306 69.1363346,45.6252537 69.0219231,45.5320446 C68.9722197,45.3998769 69.2446505,45.3987846 69.1086696,45.2305712 C68.8249852,45.50765 68.7068225,45.459589 68.3284204,45.7221039 C68.4372051,46.0093774 68.6589947,45.6230692 68.8723441,45.9434756 C67.20775,47.5680822 64.5153278,47.9740518 62.3410397,48.7517657 C62.1365994,48.5700807 62.8966859,48.4502923 62.5271929,48.4222568 C61.6667619,48.9068716 61.5715753,49.219632 60.6755079,49.0230189 C60.310235,49.1235101 60.4251154,49.4177015 60.2652206,49.6004788 C59.8202348,49.4897929 59.0451435,50.3483367 58.4018131,49.9267109 C58.4819949,50.245661 57.8986837,50.0297507 57.8180329,50.3650852 C57.6693917,50.0639759 57.5268462,50.1764823 57.4827696,50.3650852 C57.2225303,49.9026804 56.8839847,50.401495 56.5988936,50.1440775 C56.5646639,50.4666686 56.2551901,50.4834171 55.8402139,50.445915 C55.6732855,50.6257796 56.0568455,50.6119438 55.853343,50.7211733 C55.2756586,50.6625535 54.740644,51.2920794 54.2070361,50.8056441 C54.1052848,51.2655003 52.7178105,51.5098102 52.2742314,51.249844 C52.411619,51.7366434 51.2454654,51.9558306 51.1516854,51.7453818 C50.8858193,52.0657883 50.5815034,52.3716308 50.2199817,52.6534429 C50.2162305,52.5176343 50.2724984,52.405492 50.2673405,52.2689551 C48.3908038,52.6858477 47.1402482,53.5655091 44.6743045,53.8334855 C44.7455773,53.9729351 44.695405,54.0661443 44.588027,54.1360511 C43.6192801,53.7031383 42.5394041,55.2774992 42.0597196,54.2893365 C41.5523701,54.4313348 42.1502173,54.5897176 41.8515282,54.8121816 C40.6670874,55.0481173 39.9707713,55.5527576 39.1745796,55.3823596 C38.6522253,55.7886932 38.3207132,55.7843241 37.624866,56.1975756 C37.5057654,56.0184393 37.8715072,56.0242648 37.8100814,55.8662462 C36.8675929,56.1848322 36.4671525,56.5416485 35.5284153,56.3326561 C35.7487982,56.7087696 35.1284438,56.7604716 35.1997166,57.0783294 C35.7591139,56.9498027 36.4526166,56.7666612 36.9332389,57.1409543 C36.5735928,57.4224022 36.170339,57.0149763 36.0939084,57.2884141 C37.3308658,57.5607596 37.6023588,56.7746714 38.7971153,56.5150693 C38.8533833,56.6268475 38.8341584,56.7084055 38.8116512,56.7895994 C39.2716418,56.8263733 39.6256611,56.4983208 39.9346661,56.2824105 C42.0817579,56.2787695 43.9390698,54.6894805 46.0444296,54.8420377 C46.4612814,54.3042645 47.5538178,54.0351959 48.4522297,53.7009537 C48.4709857,54.1349588 47.3479708,54.1200308 47.3817316,54.5598615 C47.8782964,54.4233247 49.7496752,53.6252212 49.727637,54.2751367 C49.629168,54.0563136 49.4500483,53.805814 49.7004408,53.7253483 C49.9442686,53.590996 49.9756849,53.8334855 50.1744984,53.779963 C50.1463644,53.2673126 51.9098963,53.0710636 52.4899253,52.9523676 C52.4050544,52.9549163 52.3436286,52.9145014 52.3154946,52.8151026 C52.5710449,52.9206911 53.024471,52.2766012 53.5111889,52.483409 C53.2743945,52.5234598 53.145916,52.6072024 53.188117,52.7583032 C53.7334474,52.942537 53.379897,52.3359492 53.8727106,52.2904369 C53.9899355,52.472122 53.627476,52.4619272 53.6865574,52.6206741 C54.4780601,52.2773294 56.0648168,52.0472193 56.7386257,51.6813005 C56.7409702,51.3805553 56.3874198,51.7071515 56.3897643,51.4067704 C56.554817,51.4115037 56.8600708,51.1679219 56.9247789,51.3521556 C56.9547885,51.4766773 56.8239655,51.5356612 56.8380325,51.6532649 C58.3858705,51.2789719 59.7996032,50.7098863 61.7070873,50.316296 C62.1286282,50.6305129 63.1217578,49.8389632 63.6952222,49.7697845 C64.4524952,49.6780317 65.5314335,49.1621045 66.4968981,48.8169393 C68.0367648,48.2660586 69.7885742,48.1065835 70.9406608,47.323044 C71.0086513,47.4501143 71.0560101,47.6128663 71.2510724,47.5171084 C71.2121538,47.3885817 71.0785173,47.2221888 71.2013691,47.159928 C71.683398,47.0936621 72.0918096,47.163569 72.413006,47.3834844 C72.4397333,47.1916046 72.5311687,47.0263039 72.6249486,46.8628238 C72.4402022,46.8879466 72.235293,47.2309272 72.0308527,47.0255757 C72.2034078,46.9385563 72.1030632,46.7404868 72.4509868,46.7248306 C73.0929106,47.1406308 72.7102884,46.8580905 73.3930064,46.8391574 C73.2204513,46.8799364 73.1660589,46.9713251 73.1684034,47.0849238 C73.5050734,46.7018924 74.4016097,46.960038 74.7167103,46.5697247 C74.1404326,46.5759144 74.0152363,46.7029847 73.516327,46.618878 C74.0058584,46.4211726 74.1502795,46.4433826 74.531495,46.1564731 C74.695141,46.2842716 74.358471,46.5136536 74.6796673,46.4870744 C74.9914856,46.0122902 76.1656105,46.7099025 76.6368547,46.13754 C76.467113,46.2638821 76.032443,46.1568372 76.2659551,46.0541615 C76.5060317,45.974424 76.6302902,46.1000379 76.8351993,46.0836535 C76.9618023,45.415169 77.9150754,45.7333909 78.272377,45.3215958 C78.5701283,45.3674722 78.6118604,45.4905374 78.7178318,45.5688185 C78.7609705,45.2491402 79.6410953,44.914898 79.8572581,44.8879547 C80.0223108,45.1344493 79.4305593,45.0740089 79.474167,45.2717143 C80.4433828,44.944754 80.6492298,44.5700969 81.0374787,44.289013 C81.2550482,44.2019935 81.2536415,44.4965491 81.4472971,44.4557701 C81.1237563,44.1397327 81.8425796,43.8575566 82.3203884,43.662764 C82.4165128,43.962781 82.5056038,44.0898513 82.4427712,44.185245 C82.2936611,44.118615 81.9705892,44.2788183 81.8814982,44.4302832 C82.2397376,44.514754 81.7201967,44.8085813 81.8055365,45.0062867 C81.578589,45.0161173 81.5368569,44.9341952 81.5945316,44.7856431 C80.9413543,45.1770488 79.9336888,45.2094535 79.2861382,45.5986746 C79.2575353,45.4978193 79.3794493,45.3641953 79.1759468,45.35218 C79.4605689,45.6026796 78.8622529,45.4941784 78.9888558,45.6809608 C79.3461574,45.7661598 78.9180519,46.0949405 78.7792576,46.2023495 C78.8355256,46.052341 78.7947313,45.9715112 78.5682527,45.9820701 C78.5696594,46.5500634 77.7978505,46.1291658 77.6885968,46.4998178 C77.4044436,46.441198 77.7645586,46.1848728 77.3786541,46.3057534 L77.5272953,46.6356265 C77.1887497,46.7736197 76.1674861,47.0871084 75.8809884,47.1777688 C75.6127777,47.2058044 76.3414479,47.5116469 75.831285,47.5618925 C75.7328161,47.1683023 74.8058013,48.0184718 74.456471,47.4737807 C73.6588726,47.9940772 73.1102599,47.704619 72.4889677,48.2893609 C72.384872,48.1611983 71.7837425,48.1735776 71.7588908,48.3974981 C71.8920584,48.2926378 72.2620203,48.4430104 72.0299149,48.508184 C70.4051773,48.5314862 68.5544301,49.2928158 66.9310992,49.5327565 C67.0492619,49.5189208 67.1266304,49.5811816 67.2021232,49.6423501 L66.8068408,49.7504873 C66.7510417,49.6379809 66.7712044,49.5571511 66.7946494,49.4766854 C66.5423813,49.7767024 65.7996442,49.4016811 65.6308402,49.6088531 C65.9567256,49.6274221 65.5131464,49.7483027 65.4324957,49.664196 C65.468132,49.9095982 65.4995483,49.8564399 65.2843233,50.0748989 C65.4385914,50.0483197 65.636467,49.9452799 65.7180556,50.0486838 C65.024084,50.6195899 63.6141025,50.5820878 62.7006858,50.7841623 C62.4577958,51.0215544 63.1625521,50.9716729 62.8882457,51.1970498 C62.4432599,50.9800472 62.2993077,51.8050939 61.9945228,51.442452 C61.9832692,51.2105214 62.9552984,51.0259236 62.3663603,50.7845264 C61.9893649,51.1289634 61.9007429,51.7486587 61.161288,51.5778966 C61.6142451,52.3672617 60.1048569,52.3654412 59.847431,52.8668045 C59.5360815,52.768498 58.7675549,52.7044167 58.481526,53.0568638 C59.239268,52.9520035 59.9299573,52.9683879 60.4068283,53.3616141 C60.2956991,53.4063982 60.1175172,53.4253313 60.1470579,53.5261865 C60.7674122,53.5072534 60.3360245,53.0637817 60.927307,53.0328333 C60.7978907,52.7175242 60.291479,53.0703355 60.1442445,52.7848824 C60.9193357,52.5234598 61.6198719,52.2820627 62.2683603,52.294442 C61.9157477,52.30937 62.2547622,52.6039255 61.9828003,52.6508942 C61.8599486,52.6024692 61.3150871,52.5678798 61.3493168,52.7313599 C61.4055848,53.2028672 60.4208953,53.8127319 59.6125122,53.580073 C59.5285791,54.1305897 58.7356697,53.8145523 58.6193826,53.8527827 C58.9218229,53.8535109 58.6737749,54.1790147 58.5710859,54.2365423 C58.4079088,53.8556954 57.4344729,54.2412755 58.1115642,54.4557294 C57.7040903,54.5736973 57.5273151,54.3872789 57.4649514,54.2638496 C57.2300327,54.5296414 56.961822,54.7815974 56.8319368,55.0881681 C56.7498793,54.8791757 56.9041473,54.7783205 56.5810754,54.7863307 C56.3916399,54.9651029 56.5946735,54.9683798 56.4957357,55.0892604 C56.4089892,55.0925373 56.3470945,55.0521224 56.3208361,54.9519954 C56.2289317,55.6426898 54.9924431,55.0055178 54.9272661,55.3375755 C55.0529312,55.3131809 55.1743762,55.2978888 55.2015724,55.4475331 C54.7322038,55.5356449 54.2412658,55.6645357 53.9566436,55.4224104 C53.9744618,55.8327491 53.5533899,55.3812673 53.2228155,55.5327321 C53.3325381,56.1185663 51.6721641,56.6417755 51.6065182,56.1662632 C51.3631592,56.4655519 51.2735994,56.7790406 50.6870058,56.6068221 C50.7596853,57.0754166 51.4058291,56.5227154 51.6337144,56.7160516 C51.4428722,56.9978636 50.536489,56.9949509 50.316575,57.2665682 C49.9644313,57.1056367 49.7102877,56.9982277 49.6155699,56.7186003 C49.3745555,56.8482192 49.456144,57.1056367 49.3075028,57.2709374 C49.4308234,57.2501838 49.5836847,57.1773641 49.6437039,57.2687528 C49.4223832,57.673266 48.5900862,57.7573727 48.3959617,57.247271 C48.6758949,57.258558 48.5553876,56.7852302 48.4433206,56.8624191 C48.4634833,57.2523683 47.7746696,57.3619619 47.7127748,57.7184141 C48.2144975,57.7144091 47.9073682,57.3921821 48.3340669,57.3579568 C48.5797704,57.5804209 48.3908038,57.7224192 48.7612346,57.795603 C48.1357224,57.9186682 47.866105,58.0169747 47.5031766,58.2419875 C47.4300283,58.0781432 47.7277796,58.0613947 47.5514733,57.8567715 C47.1407171,57.8738841 47.4834828,58.1895573 47.304832,58.2976945 C47.0774157,58.2532745 46.7970136,58.3049765 46.6544681,58.1090916 C46.0228602,58.7844939 45.3134149,58.7189562 44.1782086,59.0837827 C44.2058737,59.4853831 44.7755869,58.9173898 44.8914051,59.1620638 C43.9887731,59.9212088 42.7879209,60.1535035 41.8501215,60.8558491 C41.8187052,60.7327838 41.9495282,60.6708871 41.9331167,60.5521911 C41.5045424,61.0950616 40.8734033,60.8034189 40.8916904,61.2239524 C39.2486657,61.2439778 36.1754969,62.4618866 34.6431326,62.3606673 C33.8863284,62.5867723 33.1299932,63.3863321 32.3108253,62.9443168 C32.0735621,63.3863321 30.9388247,63.3182458 30.7339155,63.6856209 C30.8966237,63.6604981 30.8136285,63.8163322 30.7132839,63.8793212 C28.9666324,63.9918276 28.5586897,64.9949184 26.6080668,65.2672639 C26.8659616,65.6699566 27.8243927,64.7746389 27.9434932,65.4365696 C28.9581922,65.2060954 29.3830154,65.3950624 30.2908053,65.1230809 C30.179676,65.1704137 30.0014941,65.1911673 30.0310348,65.2912944 C30.1182502,65.2883816 30.2293794,65.2363155 30.2701737,65.3145966 C29.7890826,65.4001597 29.5222786,65.5665527 29.4941446,65.8232419 C30.174987,65.5472554 31.0724611,65.2002698 31.8602127,65.3178735 C31.8470835,65.734402 30.3592646,65.70491 30.348011,65.9466713 C31.0340114,65.9164511 31.6824997,65.9554096 32.4341459,65.8035806 C32.2362703,66.1556637 32.7454954,65.7467813 32.7909786,66.0726493 C32.4491507,66.4116248 32.1120118,66.2867391 31.8362988,66.4447577 C31.9441457,66.3846815 32.2930071,66.5802023 32.0543372,66.6613962 C31.6853131,66.6406426 31.7125093,66.7400414 31.3589589,66.864563 C31.2909684,66.7604309 31.6431121,66.4993725 31.3003464,66.5084749 C31.0133798,66.8296096 30.4619537,67.4023362 29.9883649,67.0786528 C30.0422884,67.2406766 30.1876473,67.2261126 30.2467287,67.3768493 C29.997274,67.4380178 29.7618864,67.5042837 29.6910825,67.6335386 L29.5715131,67.3877723 C29.0496277,67.7303888 28.8297137,67.9539451 28.6585653,68.3078486 C28.2895412,68.3271458 27.0216363,68.5135642 27.0127273,68.8874931 C27.5875983,68.8525397 28.1104215,68.2393982 28.7181156,68.664665 C30.0436951,68.2412187 31.7064136,67.946299 32.4880694,67.5621754 C32.9883854,67.3153167 33.8652279,67.3178654 34.3125583,67.1216164 C34.7622331,66.9228188 35.3914966,66.5026493 35.8782145,66.8492709 C35.4951234,66.7651642 35.2714582,67.1835131 34.847104,67.0575351 C34.6839269,67.2403125 35.0679557,67.2206512 34.8653911,67.3320652 C32.2972272,67.7860958 29.866451,68.8164939 27.3906604,69.9029632 C24.9167455,71.0029041 22.3964094,72.139619 19.6256809,72.7960882 C20.0345614,73.5206438 18.3685607,73.6975955 17.7768092,73.6502628 C17.7538332,74.1796617 16.8694883,73.8818293 16.9562347,74.280881 C17.2882157,74.3879259 17.8851251,73.9797717 18.1078524,74.3016346 C18.1233261,74.4618378 18.4684363,74.7418294 18.2564937,74.8197464 C17.13723,75.3374942 16.1089329,74.8769099 15.7131815,75.4179599 C16.3293158,75.2151572 17.1316032,75.6797466 18.0684649,75.3469608 C17.9338906,75.4008473 18.2668095,76.0558601 18.2752497,75.7543867 C17.8879385,75.2268083 18.685068,75.5173588 18.7572786,75.1343274 C19.1052022,75.0480361 19.3087047,75.2435568 19.4962646,75.4703901 C19.3795085,75.9138618 18.5265799,76.088629 18.3122927,76.4949626 C18.5017282,76.8306613 18.8979485,76.859425 19.1638146,76.607469 C20.9784566,76.777867 23.1504002,75.2471978 24.9040852,74.9548269 C25.1000852,74.8976635 25.1390039,75.1390606 25.3776739,74.9999751 C26.2080953,74.6548099 27.4197322,73.7853432 28.5652543,74.1356058 C29.1110536,73.8173839 29.6676375,73.762405 30.3372263,73.6080274 C30.2678292,73.3811941 30.4310063,73.2439291 30.8094084,73.1889502 C30.7245375,73.3997631 30.8694275,73.2894414 30.9693032,73.5155464 C30.7273509,73.6225913 30.4483556,73.7168927 30.3583268,73.8814652 C30.5383843,73.9593822 30.88115,73.7336413 30.9111596,74.0930063 C30.2476665,74.2823374 30.1998387,74.7072401 29.6357524,74.9384425 C29.8401926,74.9165966 29.927408,75.118307 30.2068722,74.9540987 C30.3981833,74.3617108 31.4597723,74.1039292 31.363179,73.4012195 C31.6196671,73.4059528 31.9324232,73.7198055 31.8386433,73.9153263 C32.7994188,74.1246828 33.7489408,73.3848351 34.6557929,73.4634803 C34.8034963,73.7653178 34.4335344,73.8676294 34.4007114,74.09956 C35.1345395,73.936444 34.4002425,74.3467828 34.4991804,74.5372062 C34.8939939,74.1115753 35.8439848,73.8989419 36.5060712,73.5756226 C41.9040449,73.1266894 47.1519707,70.4957152 52.1194945,69.67613 C53.4305381,69.0720909 54.9080412,68.6293474 55.8177067,68.2667055 C56.2214293,67.7369425 57.3088078,67.2151897 57.9408846,67.3076706 C58.1626742,67.0018281 59.6359572,66.5984072 60.1015746,66.4301938 C59.4868471,66.597679 60.1845699,66.5339618 60.3135173,66.6501091 C59.492005,66.8995165 58.8561769,66.9341058 58.8829042,67.4172642 C58.7469233,67.4103464 58.6184448,67.3917774 58.5101289,67.3346139 C58.5785883,67.2952913 58.7042534,67.2785428 58.6704926,67.197713 C57.967143,67.2603379 59.0531148,67.6947071 58.5392007,67.8847664 C58.2672389,67.4675098 57.8869612,68.157476 57.719564,67.5538011 C58.0107507,67.4260026 58.2123776,67.6360873 58.1758034,67.3353421 C57.2727025,67.5432422 56.4980802,67.8898638 56.0770082,68.1024972 C56.550128,68.301659 57.0659178,67.7216504 57.5592003,67.6914302 C57.7111238,67.771896 57.7959946,67.9681449 57.9465114,68.0489748 C58.5584256,68.1057741 58.916665,67.6998045 59.3804068,68.0213033 C58.1500139,68.6737674 58.1842436,68.0453338 57.2923963,68.3224126 C57.3472576,68.3067563 57.4344729,68.3580942 57.3303772,68.4046988 C56.7311233,68.6482805 56.381793,68.594394 55.886166,68.898052 C55.6071707,68.8397962 54.6914095,68.5022771 54.9971321,69.1452747 C55.3492758,68.9654101 55.8144244,68.8084838 56.0981087,69.1179673 C57.01809,69.038958 57.214559,68.2656132 57.8986837,68.4327343 C57.4874586,68.5805583 57.2305016,68.7902789 57.1990853,69.0913881 C57.649229,69.0262146 57.3650758,68.6653932 57.8757076,68.6246141 C57.9061861,68.7484076 57.7767697,68.8088479 57.7917745,68.9260875 C58.1828369,68.6442755 58.9701196,68.2681619 59.3105408,68.598035 C58.5542055,68.9730562 57.8349133,69.2162739 57.2881762,69.5304907 C57.2436307,69.4121587 57.1221857,69.220643 57.1151522,69.3921333 C57.1404728,69.4478404 57.1653245,69.5028192 57.1897073,69.5567058 C58.238636,69.668848 58.3174111,68.8747497 59.1792488,69.2839961 C58.7117558,69.3546312 58.4383873,69.7413036 57.9948081,69.6127769 C58.0290378,70.1072224 57.0921761,70.4549362 56.5051137,70.4887974 C58.1368847,70.7014308 58.7492678,69.4103382 59.931364,68.9821587 C60.1517469,69.2545042 59.3719666,69.4671376 59.8990099,69.6408125 C61.0384363,68.7862738 63.2267913,69.0327683 64.4524952,68.6570189 C63.4101311,69.2734373 62.4399776,69.6852324 61.4065226,69.7791698 C61.0876707,69.8399742 61.7661687,69.9477473 61.4210585,70.0536999 C60.4874791,69.9743265 58.9898133,70.6941488 57.8471047,71.2304656 C57.831631,71.102303 57.9010282,71.0593394 57.733631,70.983971 C57.4091524,71.7493056 56.0695058,71.5938356 55.5190175,71.972862 C55.6024817,71.9695851 55.7136109,71.9200677 55.7534674,72.0001693 C54.2042227,72.221177 52.2296859,72.7673244 51.0419629,73.6032941 L50.8900394,73.2748774 C49.5128809,74.0125405 47.4253393,75.0072571 45.4976925,75.0851741 C45.5994437,75.2595772 45.5394245,75.369899 45.3185728,75.4161394 C40.9381115,76.4061227 36.441832,78.693024 32.3441172,79.5584856 C32.5016675,79.519163 32.6779738,79.4470715 32.7173614,79.6342181 C30.6734275,79.7201452 29.1846708,80.389722 27.5257036,80.9129312 C27.2565551,80.852855 27.0544593,80.6547855 26.7960956,80.5699506 C26.9709952,80.9245824 27.0319521,80.7152259 27.2743733,81.0818728 C26.3417317,80.9475206 25.2965542,81.2905011 24.5617884,81.7113988 C24.5205252,81.6294767 24.4797309,81.5490109 24.4384677,81.4663606 C23.9859795,81.967724 23.2394911,82.3256326 22.5769358,82.2302388 C22.6969741,82.2073006 22.7476153,82.3259967 22.7977876,82.4436004 C22.3288878,82.6675209 21.9265719,82.8371907 21.743701,82.582686 C21.5200358,82.7381559 21.1528873,82.797868 20.8434135,82.5783168 C20.5081502,82.7654633 21.0572318,82.9711788 20.8968681,83.1259206 C17.0153161,83.8781477 12.039821,85.6025171 8.09121638,87.0916791 C11.4499452,86.135557 14.8429036,85.2384188 18.1392687,83.8865219 C18.2405511,84.1228217 18.7235178,83.5919664 18.7488384,83.9800952 C20.4870497,83.1211873 23.2718452,83.0341678 24.862822,82.0889687 C24.9265923,82.1796292 24.9622287,82.3256326 25.082736,82.3045149 C24.8473483,82.0168772 25.1324393,81.9265809 25.2679514,81.779121 C25.6501046,82.0798662 26.1748034,81.5027704 26.8359521,81.7769365 C26.7918755,81.3778847 28.1624694,81.3880795 28.4344312,81.3899 C28.4799145,81.2515426 28.3767566,81.0582064 28.5661921,80.9755561 C28.7711012,81.2588246 29.0285272,80.8000608 29.3689484,81.0156069 C29.4749197,80.563761 30.0999631,80.6325755 30.5149393,80.3889938 C30.8384802,80.8572242 31.3036287,80.4279523 31.8048825,80.2830412 C31.9624328,80.1002639 31.5849685,80.1210175 31.7819064,80.0085111 C34.3749219,79.482025 36.6898799,78.5779689 39.5675176,78.0962669 C39.4995271,78.1366818 39.3747998,78.1548867 39.4104362,78.2338961 C39.7405416,78.2087733 39.4901491,77.9553609 39.8211923,77.9280535 C39.9191924,78.1545226 40.0631446,78.0456572 39.976867,78.255742 C40.3641782,77.9539045 41.0623699,77.9626428 41.5828486,77.8829053 C41.5725328,77.592719 41.3348007,77.7270712 41.2311738,77.6109239 C41.4834419,77.5774268 41.3727815,77.4004751 41.6827243,77.3884598 C41.758686,77.5523041 41.4646859,77.5697808 41.6414611,77.7725835 C42.1497484,77.7500094 41.8416813,77.4066648 42.348093,77.3837266 C42.4746959,77.7904243 42.8854521,77.3316605 43.2891747,77.4878587 C43.3402848,77.1284937 43.3787346,77.1121092 43.2516628,76.9391626 C43.554572,76.9380703 43.7754238,76.936978 43.8016821,76.689027 C43.8406008,76.7713132 43.8795195,76.8535995 43.9179693,76.9347934 C44.0755196,76.8069949 44.7075964,76.2688576 44.9973765,76.6249457 C44.5233188,76.6475198 44.3104384,77.2042261 43.6239691,77.018536 C43.9789262,77.6720924 45.4981614,76.3343953 46.11242,76.8656147 C43.9864286,77.5923549 42.2613465,77.9211356 39.9979675,78.529908 C40.0261015,78.682101 40.2432021,78.6977573 40.1156614,78.7764025 C39.921068,78.7789512 39.5886181,79.0432865 39.4896802,78.8659707 C39.5065606,78.630035 39.9914029,78.9457082 39.8024363,78.5874355 C39.294149,78.6937522 38.4023017,79.0214406 38.1800433,79.156157 C38.3779189,79.1066396 38.9176225,79.1987565 38.6695746,79.4791122 C36.7564637,79.5974441 34.7838025,80.4832953 33.2186152,80.8892648 C30.9557051,81.4918475 28.613082,81.9644471 26.1063441,82.5582914 L26.0256933,82.3944471 C25.3040566,83.0450908 24.231214,82.730874 23.7201133,83.3811535 C23.4153285,83.3895278 23.1114815,83.3971738 22.9318929,83.1539562 C22.7855962,83.2540832 22.3129452,83.2329655 22.3921893,83.4161069 C22.8020077,83.2526268 23.0988212,83.3123389 23.2765342,83.6123559 C22.753711,83.8144305 21.299184,84.209113 20.5780162,84.2604509 C19.8277767,84.8448286 18.2954123,85.009401 17.6455173,85.5453537 C18.3291731,85.6138042 19.3373075,84.6682409 19.8319968,85.4324832 C19.1239582,85.4299345 18.9373361,86.1293673 18.1336419,86.0529067 C18.301508,86.3256163 18.0815941,86.3893335 17.6370771,86.3933386 C17.5226656,87.183796 15.720215,86.991188 15.1551908,87.6611288 C14.8339945,87.5398841 14.457468,87.5315098 14.0776593,87.5329662 C14.1545588,87.8118655 14.4823197,87.5333303 14.3444632,87.8253371 C14.5381188,87.8187834 14.8569706,87.5471661 14.9629419,87.7222973 C12.9640224,88.5342365 11.5704524,89.2100029 9.8017626,89.8508159 C10.2200212,90.603043 8.85036505,90.3372512 8.64170467,90.6176069 C9.27003031,90.8473529 7.8886517,90.9489363 7.541197,91.0778271 C6.69014398,91.3909516 5.87097615,91.9418323 5.47616258,92.2389365 C6.11808631,92.4781491 6.35159838,91.7703421 7.04275658,91.8140339 C7.11356044,92.011011 7.13512983,92.192332 6.97664172,92.3099357 C6.82659381,92.1996139 6.33424909,92.5131026 6.53915827,92.7410281 C7.0071202,92.4614006 7.34191461,92.4992668 7.86239331,92.4916208 C7.43569456,92.9121543 6.97992402,93.6443559 6.09464133,93.3636361 C5.87941635,93.8569893 5.10713849,93.918886 4.37471711,94.3161173 C4.78312878,94.7013332 3.81719533,94.859716 3.22919507,95.0818159 C2.96708012,95.6046611 3.5128794,95.6345171 2.83625709,95.982231 C3.1654247,96.0586916 3.22122377,95.7503004 3.44395114,95.8679041 C3.46786503,96.308099 3.5138172,96.7541194 2.8184389,96.9449069 C2.77623793,96.8240262 2.89580736,96.7573963 2.86954897,96.6405207 C2.40815164,96.8535182 1.97395048,97.2551186 1.97113709,97.4298858 C1.4309646,97.3770915 1.64759627,97.5784379 1.36203633,97.7371847 C0.908610294,97.9880485 -0.022155673,97.9596488 0.000402749935,98.4941451 C0.450026357,98.5560418 0.74215089,98.0881755 1.11867737,98.4908682 C0.886103107,98.830936 0.379691397,98.4854067 0.509576623,98.7963466 C0.904390197,98.927422 1.63446708,98.2767784 1.90549112,98.6954914 L1.34515594,98.890284 C1.47316557,99.1360503 1.95941459,98.9470833 1.80514658,99.305356 C1.91627582,99.2143315 2.33969228,99.23108 2.22621854,99.0632307 C2.02974955,99.1491579 1.89142413,99.1003687 1.81030448,98.9212324 C2.04475434,98.830936 2.58070674,98.7082349 2.97458251,98.6128411 C2.58727133,99.3257455 1.02677303,99.8416728 0.21792099,100.045204 C0.228705683,100.219971 0.283098052,100.410394 0.167748718,100.54147 C0.604294368,100.4002 1.03661992,100.256381 0.448619658,100.252376 C0.779662868,100.096542 0.970505059,100.27495 1.18995013,100.37981 C0.733710694,100.992587 0.612265664,100.465009 0.0734998723,100.766118 C0.440179462,100.707499 0.650715442,100.799615 0.488945034,101.099996 L0.488945034,101.099996 Z" id="path-1"></path>
        <filter x="-4.9%" y="-10.6%" width="109.0%" height="121.5%" filterUnits="objectBoundingBox" id="filter-2">
            <feGaussianBlur stdDeviation="6.5" in="SourceAlpha" result="shadowBlurInner1"></feGaussianBlur>
            <feOffset dx="0" dy="2" in="shadowBlurInner1" result="shadowOffsetInner1"></feOffset>
            <feComposite in="shadowOffsetInner1" in2="SourceAlpha" operator="arithmetic" k2="-1" k3="1" result="shadowInnerInner1"></feComposite>
            <feColorMatrix values="0 0 0 0 0.898494112   0 0 0 0 0.261242661   0 0 0 0 0  0 0 0 1 0" type="matrix" in="shadowInnerInner1"></feColorMatrix>
        </filter>
        <linearGradient x1="50%" y1="10.3570561%" x2="50%" y2="117.183991%" id="linearGradient-3">
            <stop stop-color="#F7701F" offset="0%"></stop>
            <stop stop-color="#FAD25D" offset="100%"></stop>
        </linearGradient>
        <linearGradient x1="50%" y1="10.3570561%" x2="50%" y2="100%" id="linearGradient-4">
            <stop stop-color="#F7701F" offset="0%"></stop>
            <stop stop-color="#FAD25D" offset="100%"></stop>
        </linearGradient>
    </defs>
    <g id="页面-1" stroke="none" stroke-width="1" fill="none" fill-rule="evenodd">
        <g id="icon" transform="translate(-550.000000, -2377.000000)">
            <g id="icon/dailyChinese/录音页/大A备份" transform="translate(550.000000, 2377.000000)">
                <g id="编组-7">
                    <rect id="矩形备份" stroke="#979797" stroke-width="0.9" fill="#D8D8D8" opacity="0" x="0.45" y="0.45" width="218.7" height="110.7" rx="7.2"></rect>
                    <g id="编组-6" transform="translate(9.900000, 4.600000)">
                        <g id="Fill-343备份-14">
                            <use fill="#000000" fill-rule="evenodd" xlink:href="#path-1"></use>
                            <use fill="black" fill-opacity="1" filter="url(#filter-2)" xlink:href="#path-1"></use>
                            <use stroke="#FFC043" stroke-width="0.9" xlink:href="#path-1"></use>
                        </g>
                        <path d="M128.946608,74.4 C127.074425,74.4 125.269134,74.0639452 123.530678,73.3918256 C121.792223,72.719706 120.271098,71.7787526 118.967257,70.5689373 C117.663415,69.359122 116.627044,67.8972838 115.858112,66.1833787 C115.08918,64.4694737 114.70472,62.5707539 114.70472,60.4871935 C114.70472,56.5216877 115.20619,52.2537922 116.209145,47.6833787 C114.136371,46.6751993 111.996766,45.5326131 109.790265,44.2555858 C107.583765,42.9785586 105.243572,41.667945 102.769617,40.3237057 C99.8944792,45.4990268 97.2868357,50.1869908 94.9466077,54.3877384 C92.6063796,58.588486 90.1993241,62.1674693 87.7253687,65.1247956 C85.2514134,68.082122 82.5769072,70.3672944 79.7017699,71.9803815 C76.8266326,73.5934686 73.4166372,74.4 69.4716814,74.4 C66.5296805,74.4 63.6044393,73.6774822 60.6958702,72.2324251 C57.7873011,70.7873679 55.1796576,68.8382502 52.8728614,66.3850136 C50.5660652,63.931777 48.6939108,61.108917 47.2563422,57.9163488 C45.8187735,54.7237806 45.1,51.3800356 45.1,47.8850136 C45.1,44.5916275 45.6850482,41.5167264 46.8551622,38.660218 C48.0252763,35.8037096 49.6968426,33.3169043 51.8699115,31.1997275 C54.0429804,29.0825507 56.6673396,27.4190796 59.7430678,26.2092643 C62.8187961,24.999449 66.2622228,24.3945504 70.0734513,24.3945504 C74.6870437,24.3945504 79.2337042,25.0330545 83.7135693,26.3100817 C88.1934344,27.587109 92.6063696,29.0993555 96.9525074,30.8468665 C100.028236,25.8059693 102.869898,21.3700464 105.477581,17.5389646 C108.085264,13.7078828 110.609329,10.5321652 113.049853,8.01171662 C115.490376,5.49126805 117.897432,3.59255861 120.271091,2.31553134 C122.644751,1.03850406 125.135385,0.4 127.743068,0.4 C129.815841,0.4 131.587702,0.803265722 133.058702,1.60980926 C134.529695,2.41635281 135.432348,2.98764591 135.766667,3.32370572 C137.170803,2.44995022 138.608351,1.86185437 140.079351,1.55940054 C141.550352,1.25694672 142.820742,1.10572207 143.89056,1.10572207 C145.89647,1.10572207 146.89941,1.57619875 146.89941,2.51716621 C146.89941,2.85322602 146.715538,3.23968901 146.347788,3.67656676 C145.980037,4.11344451 145.361558,4.83596226 144.49233,5.84414169 C143.823694,6.65068523 142.904332,8.24694538 141.734218,10.63297 C140.564104,13.0189947 139.310429,15.8586575 137.973156,19.1520436 C136.635883,22.4454297 135.265199,26.0412157 133.861062,29.9395095 C132.456925,33.8378033 131.186529,37.7360386 130.049853,41.6343324 L131.253392,41.6343324 C132.189484,41.6343324 133.075414,41.4999105 133.911209,41.2310627 C134.747005,40.9622148 135.515926,40.6765683 136.217994,40.3741144 C136.920063,40.0716606 137.521826,39.7860141 138.023304,39.5171662 C138.524781,39.2483184 138.942673,39.1138965 139.276991,39.1138965 C139.477582,39.1138965 139.67817,39.2147129 139.878761,39.4163488 C140.079352,39.6179847 140.179646,39.920434 140.179646,40.3237057 C140.179646,40.7941895 139.828617,41.5335099 139.126549,42.5416894 C138.42448,43.5498688 137.505119,44.5916386 136.368437,45.66703 C135.231754,46.7424214 133.927933,47.7505857 132.456932,48.6915531 C130.985932,49.6325206 129.448091,50.2374192 127.843363,50.506267 C127.442181,52.4554139 127.124583,54.3205179 126.89056,56.1016349 C126.656538,57.8827519 126.539528,59.5126175 126.539528,60.9912807 C126.539528,63.3436993 127.107861,65.0407759 128.244543,66.0825613 C129.381225,67.1243467 130.718478,67.6452316 132.256342,67.6452316 C133.593615,67.6452316 134.914153,67.2083604 136.217994,66.3346049 C137.521835,65.4608494 138.675216,64.4526851 139.678171,63.3100817 C140.881717,62.1002664 141.984951,60.6552309 142.987906,58.9749319 C143.054769,58.773296 143.221926,58.5380577 143.489381,58.2692098 C143.623108,58.1347859 143.823696,57.9835612 144.09115,57.8155313 C144.358605,57.6475014 144.659487,57.5634877 144.993805,57.5634877 C145.528715,57.5634877 146.013469,57.7651206 146.448083,58.1683924 C146.882696,58.5716641 147.1,59.0421408 147.1,59.5798365 C147.1,59.8486844 147.049853,60.1007254 146.949558,60.3359673 C146.849262,60.5712092 146.732252,60.8232502 146.598525,61.0920981 C146.464798,61.3609459 146.331072,61.6633952 146.197345,61.999455 C144.726345,64.3518737 143.08821,66.4354133 141.282891,68.2501362 C139.745027,69.7960114 137.923019,71.2074414 135.816814,72.4844687 C133.710609,73.7614959 131.420563,74.4 128.946608,74.4 Z M67.6357143,63.4 C70.0234694,63.4 72.2122349,62.8369714 74.2020408,61.7108974 C76.1918467,60.5848234 78.1982042,58.8791781 80.2211735,56.5939103 C82.2441428,54.3086424 84.3665705,51.427261 86.5885204,47.9496795 C88.8104703,44.472098 91.3142718,40.4149804 94.1,35.7782051 C91.5795918,34.7846104 88.9762889,33.9731869 86.290051,33.3439103 C83.6038131,32.7146336 80.8347081,32.4 77.9826531,32.4 C70.8193519,32.4 65.2148161,34.1056453 61.1688776,37.5169872 C57.122939,40.928329 55.1,45.4822365 55.1,51.1788462 C55.1,52.9673166 55.4316293,54.623283 56.094898,56.1467949 C56.7581633,57.6703068 57.6535658,58.9619605 58.7811224,60.0217949 C59.9086791,61.0816292 61.2351965,61.9096124 62.7607143,62.5057692 C64.2862321,63.1019261 65.9112159,63.4 67.6357143,63.4 Z M106.1,34.7860182 C108.22517,35.6553191 110.300501,36.4911854 112.326054,37.293617 C114.351607,38.0960526 116.360526,38.7981733 118.352874,39.4 C120.079574,33.4486025 122.18811,27.6477486 124.678544,21.9972644 C127.168978,16.3467803 129.642772,11.2814814 132.1,6.80121581 C131.767942,6.66747653 131.452492,6.56717359 131.15364,6.50030395 C130.854788,6.43343432 130.439722,6.4 129.908429,6.4 C128.115317,6.4 126.405244,6.93494906 124.778161,8.00486322 C123.151077,9.07477739 121.424402,10.7464932 119.598084,13.0200608 C117.771766,15.2936284 115.779449,18.2358482 113.621073,21.8468085 C111.462697,25.4577688 108.955698,29.7707956 106.1,34.7860182 Z" id="A备份-3" fill="url(#linearGradient-3)"></path>
                    </g>
                </g>
            </g>
        </g>
    </g>
</svg>