<?xml version="1.0" encoding="UTF-8"?>
<svg width="115px" height="116px" viewBox="0 0 115 116" version="1.1" xmlns="http://www.w3.org/2000/svg" xmlns:xlink="http://www.w3.org/1999/xlink">
    <!-- Generator: Sketch 56.2 (81672) - https://sketch.com -->
    <title>光圈@2x</title>
    <desc>Created with Sketch.</desc>
    <g id="页面-1" stroke="none" stroke-width="1" fill="none" fill-rule="evenodd">
        <g id="已收藏" transform="translate(-319.000000, -982.000000)" fill="#FCE115">
            <g id="编组-30" transform="translate(318.000000, 981.000000)">
                <g id="编组-29">
                    <circle id="椭圆形" cx="19.3749907" cy="32.6338365" r="1.2"></circle>
                    <circle id="椭圆形备份" cx="16.9749907" cy="19.4338365" r="2.4"></circle>
                    <circle id="椭圆形" transform="translate(60.918446, 12.278461) rotate(60.000000) translate(-60.918446, -12.278461) " cx="60.9184462" cy="12.278461" r="1.2"></circle>
                    <circle id="椭圆形" transform="translate(99.318446, 38.078461) rotate(120.000000) translate(-99.318446, -38.078461) " cx="99.3184462" cy="38.078461" r="1.2"></circle>
                    <circle id="椭圆形" transform="translate(96.174991, 84.233836) rotate(180.000000) translate(-96.174991, -84.233836) " cx="96.1749907" cy="84.2338365" r="1.2"></circle>
                    <circle id="椭圆形" transform="translate(54.631535, 104.589212) rotate(240.000000) translate(-54.631535, -104.589212) " cx="54.6315353" cy="104.589212" r="1.2"></circle>
                    <circle id="椭圆形" transform="translate(16.231535, 78.789212) rotate(300.000000) translate(-16.231535, -78.789212) " cx="16.2315353" cy="78.789212" r="1.2"></circle>
                    <circle id="椭圆形备份" transform="translate(71.149981, 3.600000) rotate(60.000000) translate(-71.149981, -3.600000) " cx="71.1499815" cy="3.6" r="2.4"></circle>
                    <circle id="椭圆形备份" transform="translate(111.949981, 42.600000) rotate(120.000000) translate(-111.949981, -42.600000) " cx="111.949981" cy="42.6" r="2.4"></circle>
                    <circle id="椭圆形备份" transform="translate(98.574991, 97.433836) rotate(180.000000) translate(-98.574991, -97.433836) " cx="98.5749907" cy="97.4338365" r="2.4"></circle>
                    <circle id="椭圆形备份" transform="translate(44.400000, 113.267673) rotate(240.000000) translate(-44.400000, -113.267673) " cx="44.4" cy="113.267673" r="2.4"></circle>
                    <circle id="椭圆形备份" transform="translate(3.600000, 74.267673) rotate(300.000000) translate(-3.600000, -74.267673) " cx="3.6" cy="74.2676729" r="2.4"></circle>
                    <circle id="椭圆形" cx="19.6749907" cy="32.9338365" r="1.5"></circle>
                    <circle id="椭圆形备份" cx="17.5749907" cy="20.0338365" r="3"></circle>
                    <circle id="椭圆形" transform="translate(61.218446, 12.578461) rotate(60.000000) translate(-61.218446, -12.578461) " cx="61.2184462" cy="12.578461" r="1.5"></circle>
                    <circle id="椭圆形" transform="translate(99.618446, 38.378461) rotate(120.000000) translate(-99.618446, -38.378461) " cx="99.6184462" cy="38.378461" r="1.5"></circle>
                    <circle id="椭圆形" transform="translate(96.474991, 84.533836) rotate(180.000000) translate(-96.474991, -84.533836) " cx="96.4749907" cy="84.5338365" r="1.5"></circle>
                    <circle id="椭圆形" transform="translate(54.931535, 104.889212) rotate(240.000000) translate(-54.931535, -104.889212) " cx="54.9315353" cy="104.889212" r="1.5"></circle>
                    <circle id="椭圆形" transform="translate(16.531535, 79.089212) rotate(300.000000) translate(-16.531535, -79.089212) " cx="16.5315353" cy="79.089212" r="1.5"></circle>
                    <circle id="椭圆形备份" transform="translate(71.749981, 4.200000) rotate(60.000000) translate(-71.749981, -4.200000) " cx="71.7499815" cy="4.2" r="3"></circle>
                    <circle id="椭圆形备份" transform="translate(112.549981, 43.200000) rotate(120.000000) translate(-112.549981, -43.200000) " cx="112.549981" cy="43.2" r="3"></circle>
                    <circle id="椭圆形备份" transform="translate(99.174991, 98.033836) rotate(180.000000) translate(-99.174991, -98.033836) " cx="99.1749907" cy="98.0338365" r="3"></circle>
                    <circle id="椭圆形备份" transform="translate(45.000000, 113.867673) rotate(240.000000) translate(-45.000000, -113.867673) " cx="45" cy="113.867673" r="3"></circle>
                    <circle id="椭圆形备份" transform="translate(4.200000, 74.867673) rotate(300.000000) translate(-4.200000, -74.867673) " cx="4.2" cy="74.8676729" r="3"></circle>
                </g>
            </g>
        </g>
    </g>
</svg>