<?xml version="1.0" encoding="UTF-8"?>
<svg width="308px" height="99px" viewBox="0 0 308 99" version="1.1" xmlns="http://www.w3.org/2000/svg" xmlns:xlink="http://www.w3.org/1999/xlink">
    <!-- Generator: Sketch 56.2 (81672) - https://sketch.com -->
    <title>鼓励动作@2x</title>
    <desc>Created with Sketch.</desc>
    <defs>
        <linearGradient x1="50%" y1="0%" x2="50%" y2="100%" id="linearGradient-1">
            <stop stop-color="#85C7E4" offset="0%"></stop>
            <stop stop-color="#50A7BF" offset="100%"></stop>
        </linearGradient>
        <linearGradient x1="40.6436964%" y1="3.20399067%" x2="56.4592183%" y2="100%" id="linearGradient-2">
            <stop stop-color="#FFE9CC" offset="0%"></stop>
            <stop stop-color="#FFD49E" offset="100%"></stop>
        </linearGradient>
        <linearGradient x1="44.0501711%" y1="-67.1787804%" x2="50%" y2="83.9480568%" id="linearGradient-3">
            <stop stop-color="#FAD961" offset="0%"></stop>
            <stop stop-color="#F76B1C" offset="100%"></stop>
        </linearGradient>
        <linearGradient x1="50%" y1="0%" x2="50%" y2="100%" id="linearGradient-4">
            <stop stop-color="#89C5DF" offset="0%"></stop>
            <stop stop-color="#50A7BF" offset="100%"></stop>
        </linearGradient>
        <linearGradient x1="49.6660851%" y1="0%" x2="47.0710359%" y2="133.082568%" id="linearGradient-5">
            <stop stop-color="#FAD961" offset="0%"></stop>
            <stop stop-color="#F76B1C" offset="100%"></stop>
        </linearGradient>
        <linearGradient x1="42.3926368%" y1="-28.8941403%" x2="52.3078423%" y2="86.0449677%" id="linearGradient-6">
            <stop stop-color="#FAD961" offset="0%"></stop>
            <stop stop-color="#F76B1C" offset="100%"></stop>
        </linearGradient>
        <linearGradient x1="45.4530697%" y1="-5.78183545%" x2="48.6261152%" y2="125.529888%" id="linearGradient-7">
            <stop stop-color="#FAD961" offset="0%"></stop>
            <stop stop-color="#F76B1C" offset="100%"></stop>
        </linearGradient>
        <linearGradient x1="48.8108329%" y1="0%" x2="54.1521154%" y2="145.099608%" id="linearGradient-8">
            <stop stop-color="#FAD961" offset="0%"></stop>
            <stop stop-color="#F76B1C" offset="100%"></stop>
        </linearGradient>
        <linearGradient x1="44.4699152%" y1="-4.76519092%" x2="50%" y2="61.9229152%" id="linearGradient-9">
            <stop stop-color="#FAD961" offset="0%"></stop>
            <stop stop-color="#F76B1C" offset="100%"></stop>
        </linearGradient>
        <linearGradient x1="48.6261152%" y1="44.6998378%" x2="50%" y2="53.7078682%" id="linearGradient-10">
            <stop stop-color="#FAD961" offset="0%"></stop>
            <stop stop-color="#F76B1C" offset="100%"></stop>
        </linearGradient>
    </defs>
    <g id="页面-1" stroke="none" stroke-width="1" fill="none" fill-rule="evenodd">
        <g id="词语学习拼音老用户备份-11" transform="translate(-211.000000, -607.000000)">
            <g id="编组-4" transform="translate(212.000000, 606.000000)">
                <g id="编组">
                    <g id="编组-9" transform="translate(231.000000, 0.000000)">
                        <g id="编组-8">
                            <path d="M30.3593418,42.06998 C30.7971032,42.06998 46.6191894,34.4638997 50.9219613,38.5528667 C55.2247333,42.6418336 59.005856,75.3232738 49.5537044,79.0230985 C43.2522701,81.4896482 34.9760952,79.4633589 24.7251799,72.9442304 C17.3850046,75.3948146 13.714917,76.6201066 13.714917,76.6201066 C13.714917,76.6201066 10.4855456,75.1129463 4.02680258,72.0986258 C2.52932455,64.783673 1.78058553,61.1261966 1.78058553,61.1261966 C1.78058553,61.1261966 0.339657416,50.7680344 1.37326505,49.4620642 C2.06233681,48.5914174 3.62424773,46.9559948 6.05899781,44.5557964 C21.9673862,42.8985854 30.0675009,42.06998 30.3593418,42.06998 Z" id="路径-14" stroke="url(#linearGradient-1)" stroke-width="2" fill="#82CEEF" transform="translate(28.217299, 58.691969) scale(-1, 1) rotate(2.000000) translate(-28.217299, -58.691969) "></path>
                            <path d="M33.1232619,73.2716481 C32.8230363,73.1219648 32.5168449,72.9693072 32.2046877,72.8136752 C26.1849232,66.9755287 22.8816811,62.7716656 22.2949617,60.2020857 C19.6866713,48.7788914 25.2783825,42.1624774 25.4964621,42.1548618 C25.5322584,42.1536118 25.6860348,42.1607307 25.9577913,42.1762186 C26.9872738,39.5394296 28.5206877,36.3787772 30.7711012,32.427226 C35.8418521,22.1636953 28.9342,8.74421155 32.8963668,3.44010325 C39.3916224,-2.38988222 52.2663151,14.7343053 46.7313973,26.4799289 C45.2779848,31.9206345 46.8237,34.2265489 48.7447875,34.159463 C54.9118901,31.9640391 71.8410457,29.4038567 74.4642077,40.3192299 C75.0289644,42.6312636 74.4431716,44.5844031 73.1154824,46.1577431 C72.965094,46.3359565 72.8051869,46.509297 72.636355,46.6777342 L72.7291532,46.8151964 C75.4323913,52.4887411 73.1927981,55.9616925 69.9622614,57.9703378 L70.65947,58.016434 C74.7180051,65.5246241 70.6551302,69.367023 65.7354829,70.7540501 L67.0284846,71.0538805 C69.4478766,80.4980581 59.1539412,81.1279528 54.0040984,80.3231429 L54.7227751,80.7096909 C46.572765,81.0908628 39.3729272,78.6115152 33.1232619,73.2716481 Z" id="形状结合" fill="url(#linearGradient-2)"></path>
                            <path d="M19.2366979,71.2700246 C24.2467977,73.92159 27.4025843,70.2689707 28.7040578,60.3121667 C31.3429062,46.5485298 26.1978888,39.8177752 22.6505758,43.1358041" id="路径-13" stroke="#50B1DB" stroke-width="2" fill="#FFE2BD" transform="translate(24.333152, 57.203240) scale(-1, 1) rotate(2.000000) translate(-24.333152, -57.203240) "></path>
                            <g id="编组-12" transform="translate(18.000000, 0.000000)" stroke-width="2">
                                <path d="M25.8571578,71.4583375 C23.4745125,82.323332 37.2307979,81.143845 41.0027504,79.7989863 C44.9334075,78.4807958 54.832808,70.9215277 45.4757124,66.1812201" id="路径-11" stroke="url(#linearGradient-3)" transform="translate(37.480516, 73.415655) scale(-1, 1) rotate(2.000000) translate(-37.480516, -73.415655) "></path>
                                <path d="M1.23669792,71.2700246 C6.24679769,73.92159 9.4025843,70.2689707 10.7040578,60.3121667 C13.3429062,46.5485298 8.19788884,39.8177752 4.65057582,43.1358041" id="路径-13" stroke="url(#linearGradient-4)" transform="translate(6.333152, 57.203240) scale(-1, 1) rotate(2.000000) translate(-6.333152, -57.203240) "></path>
                                <path d="M20.2310474,42.297389 C19.7747302,51.3991786 22.9505645,57.8701667 29.7585502,61.7103534" id="路径-15" stroke="url(#linearGradient-5)" transform="translate(24.973301, 52.003871) scale(-1, 1) rotate(2.000000) translate(-24.973301, -52.003871) "></path>
                                <path d="M29.828162,58.4149559 C24.3351128,69.4838632 35.587331,72.2792288 41.6793262,71.2416954 C49.1134484,69.9755832 59.918089,63.1135473 50.8968984,56.2813269" id="路径-10" stroke="url(#linearGradient-6)" transform="translate(41.342371, 63.861887) scale(-1, 1) rotate(2.000000) translate(-41.342371, -63.861887) "></path>
                                <path d="M27.9533308,47.2825701 C22.8103424,59.1241361 38.1889738,60.9570557 40.0747777,60.3557451 C42.8316512,60.3557451 58.1006142,58.0154529 51.4814071,47.7105228 C58.6218235,21.4716901 55.86539,41.8071267 50.5157225,38.258262 C45.166055,34.7093973 39.0675697,34.0465171 34.6938018,36.5050141" id="路径-8" stroke="url(#linearGradient-7)" transform="translate(41.344957, 47.261741) scale(-1, 1) rotate(2.000000) translate(-41.344957, -47.261741) "></path>
                                <path d="M55.9687168,56.6306714 C56.2379529,50.0256271 57.6899352,46.2381743 48.7852446,31.7985968 C43.3593906,21.718285 49.7945016,8.06590246 45.6496377,2.90330291 C38.9548753,-2.69644994 26.6856511,14.8666263 32.6271134,26.4119289 C34.2695184,31.7985968 32.8052201,34.1570512 30.8829616,34.1570512 C24.6429967,32.1781934 7.63480474,30.2103897 5.39418174,41.2106605 C2.78211218,53.7942822 33.333402,54.7483911 32.6271134,43.0289235 C31.3282863,33.5954511 16.591553,35.1919124 12.6192649,37.0427015" id="路径-4" stroke="url(#linearGradient-8)" transform="translate(30.727853, 29.230062) scale(-1, 1) rotate(2.000000) translate(-30.727853, -29.230062) "></path>
                                <path d="M8.14243459,81.2085626 C19.6718735,81.344949 29.105449,75.8381401 36.443161,64.6881357" id="路径-12" stroke="url(#linearGradient-9)" transform="translate(22.292798, 72.949585) scale(-1, 1) rotate(2.000000) translate(-22.292798, -72.949585) "></path>
                            </g>
                        </g>
                    </g>
                    <g id="形状结合-2" transform="translate(0.000000, 29.000000)" fill="url(#linearGradient-10)" stroke="url(#linearGradient-10)" stroke-width="1.2">
                        <path d="M1.43771756,67.8278503 C0.937641887,67.7037275 0.500075673,66.9589904 0.437566214,65.9660077 C0.125018918,64.9109636 0,63.3594281 0,61.4975855 C0,57.9600845 2.43786891,49.02324 6.06341754,39.9002113 C10.6266081,28.48091 12.4393824,23.453935 13.3145148,20.7232325 C13.9396094,18.7993285 16.3149688,14.5791519 17.8151959,13.2758621 C20.690631,13.710292 23.7535945,14.9515204 24.3161796,15.9445031 C21.9408202,18.1166528 18.0652337,25.6881461 16.877554,30.0324455 C17.6901769,28.6670942 18.8153472,27.1776202 21.5657634,24.3227948 C24.6287269,21.1576624 27.4416526,19.4199427 29.4419553,19.4199427 C32.6299377,19.4199427 34.8802782,21.3438467 34.8802782,24.0745492 C34.8802782,30.0324455 32.7549566,36.1144646 29.0668985,40.8311326 C26.1914634,44.4927564 21.0031783,47.7199502 17.8151959,47.7199502 C16.3149688,47.7199502 15.0647797,47.0372746 14.6897229,46.1063533 C21.1281972,42.3206067 27.3791431,31.8942881 29.3794458,21.2817853 C26.1914634,22.9574436 23.8161039,24.6951634 21.3157256,27.7982344 C15.377327,35.1214819 14.7522324,35.866219 13.064477,39.7760884 C10.6891175,45.0513091 6.81353105,57.8359617 3.87558647,70 C3.43802025,69.9379386 3.0629635,69.6896929 2.68790674,69.0070173 C2.00030269,68.2622802 1.81277432,68.0140346 1.43771756,67.8278503 Z M60.1384107,21.6105477 C59.5174162,31.7011494 54.1147645,35.7004733 43.5578587,39.8843813 C43.5578587,40.3766058 43.4957592,40.9303584 43.4957592,41.4841109 C43.4957592,43.5760649 43.9925548,46.4063556 46.3523337,46.4063556 C50.8234938,46.4063556 55.1083556,41.9763354 57.7165323,39.2075727 C58.1512284,39.576741 58.4617257,39.8843813 58.7722229,40.2535497 C55.0462561,45.1142664 50.2645988,48.6213658 46.3523337,49.4827586 C40.6391847,48.867478 37.2858146,44.9912103 37.2858146,40.0689655 C37.2858146,29.9783638 46.6007315,18.1034483 54.7978584,18.1034483 C56.6608417,18.3495605 58.4617257,19.5185936 60.1384107,21.6105477 Z M57.7328743,24.137931 C53.1117122,24.7787611 47.730907,30.6743973 45.7051921,38.6206897 C52.4153727,35.2242905 57.4163563,29.9694843 57.7328743,24.137931 Z M62.5439471,46.1860996 C63.3351657,41.4242587 66.926081,29.8249027 69.8475035,22.8652891 C70.882174,20.3622702 71.6125296,19.0802361 72.5863372,18.1034483 C74.838267,18.4697437 77.6988266,19.8738763 78.6726341,21.0338119 C76.4815672,23.59788 74.959993,26.7113914 73.2558298,31.9005769 C77.5771007,27.9934255 80.8637011,24.6967664 83.7851236,20.301221 C84.0894385,20.057024 84.3937533,19.9959748 85.063246,19.9959748 C86.2196424,19.9959748 87.4369018,20.4233195 87.8020796,21.0338119 C87.071724,22.9873876 86.7065462,24.8799141 86.7065462,26.8334899 C86.7065462,28.6039179 86.9499981,29.9470012 87.4977648,30.8627398 C87.4369018,31.3511338 86.2196424,32.9994633 85.002383,34.2204481 C82.8113161,33.1215618 80.985427,30.9848383 80.1942084,28.6039179 C72.5254742,33.9152019 69.9083665,38.2496981 67.5347107,49.4827586 C66.0739994,49.3606601 63.0917139,47.4070844 62.5439471,46.1860996 Z M94.1051941,65.1724138 C93.0698999,64.7412163 92.4609033,63.9404211 92.2782044,62.8316277 C92.0955054,61.6612346 91.4865088,60.8604393 90.2076161,60.1212437 C91.5474085,51.6820937 93.0698999,44.3517372 98.8553673,23.7158595 C96.1757824,23.7158595 94.8968896,23.7774591 93.4352978,24.0238576 C93.1307996,23.7158595 92.8872009,23.0382635 92.8872009,22.5454664 C93.6788965,22.2374682 96.5411803,21.6214719 99.5252635,21.1902744 C103.361942,8.74714817 109.878205,0.923994524 116.516268,0.923994524 C117.490662,0.923994524 118.465057,1.10879343 118.952254,1.10879343 C119.68305,0.554396715 121.144642,0 121.997237,0 C122.423534,0 123.093431,0.24639854 123.885126,0.800795255 C123.21523,1.97118832 122.423534,4.12717554 121.936337,6.03676423 C120.901043,9.11674597 119.804849,11.0879343 118.708655,11.9503292 C118.221458,11.9503292 118.038759,11.4575321 117.977859,10.1639398 C117.91696,9.23994524 117.79516,8.43914999 117.612461,7.63835474 C117.307963,6.89915912 117.186164,6.46796167 117.186164,5.54396715 C117.186164,5.05117007 117.247064,4.49677335 117.490662,2.89518284 C114.811077,2.89518284 110.609001,10.1639398 107.137721,20.6974773 L112.253292,20.5126784 C112.61869,20.8822763 112.984088,22.607066 113.044987,24.1470569 L106.346025,23.7774591 C100.256059,42.2573496 95.3840869,58.211655 94.1051941,65.1724138 Z M134.71004,21.6105477 C134.089046,31.7011494 128.686394,35.7004733 118.129488,39.8843813 C118.129488,40.3766058 118.067388,40.9303584 118.067388,41.4841109 C118.067388,43.5760649 118.564184,46.4063556 120.923963,46.4063556 C125.395123,46.4063556 129.679985,41.9763354 132.288162,39.2075727 C132.722858,39.576741 133.033355,39.8843813 133.343852,40.2535497 C129.617885,45.1142664 124.836228,48.6213658 120.923963,49.4827586 C115.210814,48.867478 111.857444,44.9912103 111.857444,40.0689655 C111.857444,29.9783638 121.172361,18.1034483 129.369488,18.1034483 C131.232471,18.3495605 133.033355,19.5185936 134.71004,21.6105477 Z M131.101735,24.137931 C126.480573,24.7787611 121.099768,30.6743973 119.074053,38.6206897 C125.784234,35.2242905 130.785217,29.9694843 131.101735,24.137931 Z M138.318345,36.6939741 C138.318345,27.2739426 146.837953,18.1034483 155.608138,18.1034483 C159.930586,18.1034483 162.373709,20.3492836 162.373709,24.3418798 C162.373709,28.147323 159.99323,31.8903818 157.612751,31.8903818 C156.610445,31.8903818 155.482849,31.2041544 154.793763,30.2060053 C157.612751,27.6482484 158.990923,25.3400288 158.990923,23.2813464 C158.990923,22.0960444 158.48977,21.4722013 157.550107,21.4722013 C155.921359,21.4722013 153.102371,23.2189621 150.784536,25.776719 C147.213818,29.7693151 145.271848,34.7600603 145.271848,40.0627271 C145.271848,43.4314801 146.023578,45.4277782 147.527039,46.1140056 C149.970162,45.802084 154.480543,43.618633 158.364482,40.7489545 C158.677702,40.9984918 158.990923,41.622335 158.990923,41.9966408 C156.234579,45.4277782 151.097757,48.9836841 148.278769,49.4827586 C142.766081,48.9836841 138.318345,43.2443271 138.318345,36.6939741 Z M172.539964,23.9767673 L169.071266,23.9767673 C168.70614,23.4786249 168.28016,21.4237873 168.28016,20.3029669 C170.410062,20.4275025 172.357401,20.6143059 174.000468,20.6765737 C176.434642,15.7574172 179.964194,10.4023861 181.30299,9.65517241 C182.946057,9.65517241 186.840735,10.9627963 187.631841,11.8968134 C185.197668,15.0102035 183.676309,17.4386479 181.668116,20.9256449 C183.250329,20.9256449 184.95425,20.8633771 186.658172,20.6765737 C187.023298,21.0501805 187.32757,21.7351264 187.32757,22.4200722 C185.380231,23.1672859 182.885203,23.6031605 180.085903,23.6654283 C176.069516,31.6357072 173.635342,39.7305217 173.635342,44.8364816 C173.635342,46.7045157 174.365594,47.7008006 175.643536,47.887604 C178.077709,47.576265 180.32932,46.5799801 182.033242,45.2100884 C182.215805,45.5214275 182.398368,45.8950343 182.459222,46.1441055 C181.546407,47.576265 177.164894,50.5651196 175.826099,50.6896552 C171.809712,50.5651196 167.184782,47.0158547 167.184782,44.089268 C167.184782,40.0418607 169.436392,31.6357072 172.539964,23.9767673 Z M201.228778,39.9339147 L209.032121,8.4836434 C209.313585,7.34204818 209.857112,6.52965797 210.662718,6.04644839 C211.468324,5.5632388 212.275712,5.45309721 213.084906,5.71602032 C213.8941,5.97894342 214.462322,6.53604759 214.789588,7.38734952 C215.116853,8.23865145 215.099294,9.22193912 214.736911,10.337242 C214.570818,10.8484225 214.253445,11.6186979 213.784781,12.6480914 C213.316117,13.6774849 212.620828,15.3011168 211.698892,17.5190359 C210.776956,19.7369549 209.56665,22.6703148 208.067936,26.3192036 C206.569222,29.9680923 204.694117,34.6377435 202.442563,40.3282974 L201.228778,39.9339147 Z M200.75731,43.625485 C201.72523,43.9399815 202.430526,44.5387557 202.873217,45.4218254 C203.315909,46.3048952 203.377934,47.2367523 203.059294,48.2174248 C202.740654,49.1980973 202.146364,49.9043844 201.276405,50.3363073 C200.406447,50.7682302 199.487521,50.8269425 198.5196,50.512446 C197.55168,50.1979495 196.842763,49.6103192 196.39283,48.7495375 C195.942897,47.8887557 195.877251,46.9680424 196.195891,45.9873699 C196.514531,45.0066974 197.112442,44.2892665 197.989642,43.8350556 C198.866842,43.3808447 199.789389,43.3109885 200.75731,43.625485 Z" id="形状结合"></path>
                    </g>
                </g>
            </g>
        </g>
    </g>
</svg>